<?xml version="1.0" encoding="UTF-8"?>
<svg version="1.1" xmlns="http://www.w3.org/2000/svg" width="242" height="243">
<path d="M0 0 C0.7809608 -0.00367669 1.5619216 -0.00735338 2.36654788 -0.01114148 C4.9919152 -0.02218298 7.61724294 -0.02602296 10.24263 -0.02983093 C12.12169521 -0.03609526 14.00075917 -0.04274203 15.87982178 -0.04974365 C20.99158419 -0.06715676 26.10333726 -0.07770641 31.21512198 -0.08594918 C34.40877491 -0.09109902 37.60242494 -0.09717478 40.79607582 -0.10346031 C50.78815748 -0.12251385 60.78023174 -0.13674426 70.77232808 -0.14507228 C82.30653802 -0.15484423 93.84055603 -0.18116203 105.37469834 -0.22157317 C114.28946142 -0.25173511 123.20416949 -0.26654126 132.11898261 -0.26985329 C137.44349002 -0.2722038 142.76779243 -0.28116434 148.0922451 -0.30631447 C153.10324617 -0.32960128 158.11390734 -0.33382589 163.1249485 -0.32355309 C164.96153011 -0.32305776 166.79812848 -0.32937735 168.63465881 -0.34310913 C171.14787638 -0.36084512 173.65987637 -0.35371408 176.1730957 -0.34057617 C177.25566518 -0.35703004 177.25566518 -0.35703004 178.36010474 -0.37381631 C185.81453159 -0.28014732 192.3210223 3.17641016 197.67801857 8.28516388 C205.71776528 16.95849326 205.11944442 27.39587262 205.05097961 38.4733429 C205.05776381 40.32064676 205.06667143 42.16794386 205.07752991 44.01522827 C205.10023444 49.00912012 205.09152353 54.00249282 205.07563448 58.9963932 C205.06292954 64.23542755 205.07472832 69.47441901 205.08256531 74.7134552 C205.09164851 83.50963783 205.07970885 92.3056102 205.05586243 101.10176086 C205.02865379 111.25503945 205.03746889 121.40781593 205.06499445 131.56108236 C205.0877224 140.29601876 205.09086758 149.03080447 205.07780111 157.7657609 C205.07002687 162.97508881 205.06890912 168.18418111 205.08548355 173.39349365 C205.09998273 178.29228526 205.08980733 183.19043279 205.06101227 188.0891552 C205.05443049 189.88134126 205.05624904 191.67358201 205.06732559 193.46574593 C205.12062963 202.97029678 205.00464534 211.02611673 199.40400696 219.14717102 C198.74400696 220.13717102 198.08400696 221.12717102 197.40400696 222.14717102 C196.74400696 222.14717102 196.08400696 222.14717102 195.40400696 222.14717102 C195.40400696 222.80717102 195.40400696 223.46717102 195.40400696 224.14717102 C189.05951568 228.98106914 183.43222003 230.44881742 175.56787109 230.41459656 C174.79730324 230.41912767 174.02673539 230.42365878 173.23281699 230.4283272 C170.66050555 230.44094922 168.08840642 230.43935226 165.5160675 230.43769836 C163.66773711 230.443685 161.81940921 230.45049085 159.97108459 230.45805359 C154.95651931 230.47570725 149.94202231 230.48040871 144.92742896 230.48168516 C141.79254241 230.4831077 138.65767316 230.48737924 135.52279091 230.4926796 C124.58059717 230.51117789 113.63845214 230.51935047 102.69624329 230.51777649 C92.50562075 230.5165752 82.31521006 230.53767562 72.12464112 230.56926382 C63.36775395 230.59543812 54.61093591 230.6061433 45.85400993 230.60486567 C40.62733594 230.60435637 35.40085025 230.61002194 30.17421532 230.63122177 C25.25672163 230.65062349 20.33959547 230.65071533 15.42208862 230.63618851 C13.6214068 230.63410171 11.82070186 230.63879362 10.02005959 230.65090942 C-1.65638428 230.72436205 -11.03571416 230.14092591 -20.02568054 221.92451477 C-25.96127365 215.20636835 -27.74546311 208.45617129 -27.74316406 199.71012878 C-27.74684075 198.95830956 -27.75051744 198.20649033 -27.75430554 197.4318887 C-27.76532412 194.91103187 -27.76918314 192.39021628 -27.772995 189.86933899 C-27.77926109 188.06233591 -27.78590802 186.25533412 -27.79290771 184.44833374 C-27.81393533 178.51201777 -27.82430973 172.57570159 -27.83427429 166.63935852 C-27.8383225 164.59403088 -27.84243945 162.54870337 -27.84662437 160.50337601 C-27.86567415 150.89252403 -27.87990495 141.28167971 -27.88823634 131.67081249 C-27.89800465 120.58602307 -27.92431452 109.50143355 -27.96473724 98.41671455 C-27.9949262 89.84329844 -28.00970791 81.26993955 -28.01301736 72.69647133 C-28.01536489 67.57870939 -28.02428673 62.46116107 -28.04947853 57.34345627 C-28.07281251 52.52531412 -28.07697107 47.70752543 -28.06671715 42.88934135 C-28.06622295 41.12616358 -28.07250894 39.36296809 -28.08627319 37.59984398 C-28.16407048 27.0389511 -27.8893594 17.64944997 -21.34599304 8.83467102 C-14.88031186 2.51593713 -8.99709134 -0.00226334 0 0 Z M-15.97099304 17.20967102 C-18.60567443 21.97236429 -18.74320683 26.07544704 -18.73643494 31.44581604 C-18.73940606 32.18271219 -18.74237718 32.91960834 -18.74543834 33.67883468 C-18.75411275 36.1490859 -18.75563252 38.61928859 -18.75712585 41.08955383 C-18.76175493 42.8603933 -18.76677972 44.63123178 -18.77217102 46.40206909 C-18.78528874 51.21419901 -18.79173881 56.02631497 -18.79618168 60.83845997 C-18.79911354 63.84568024 -18.80321858 66.8528967 -18.80768585 69.86011505 C-18.82135941 79.27127319 -18.83102664 88.68242263 -18.83488774 98.09359002 C-18.83936766 108.95310209 -18.85691309 119.81248824 -18.88588834 130.67196202 C-18.90751389 139.06870381 -18.9175925 147.46541018 -18.91892886 155.86217952 C-18.9199763 160.87587878 -18.92587116 165.88945966 -18.94374847 170.90312958 C-18.96024411 175.62108986 -18.96237739 180.33884295 -18.95360947 185.05682182 C-18.95283988 186.78535709 -18.95717145 188.51390356 -18.96706772 190.24241066 C-18.97981757 192.60871584 -18.97389439 194.97429051 -18.96348572 197.34059143 C-18.97154212 198.01882186 -18.97959853 198.69705229 -18.98789907 199.39583516 C-18.93478376 204.58623547 -17.57989949 208.42983454 -15.59599304 213.14717102 C-14.93599304 213.14717102 -14.27599304 213.14717102 -13.59599304 213.14717102 C-13.3284298 213.76143196 -13.06086657 214.3756929 -12.78519535 215.00856781 C-11.22186639 217.81998207 -9.27530529 219.04209985 -6.38372612 220.362854 C0.16625634 222.20566411 7.21531969 221.69908294 13.96821594 221.66474915 C15.75773182 221.67017426 17.54724322 221.67729911 19.33674622 221.68598938 C24.18187558 221.70418061 29.02666315 221.69717221 33.87179828 221.68447304 C38.95115224 221.67432202 44.03047761 221.68374469 49.10983276 221.6900177 C57.63966608 221.69728865 66.16936073 221.68772159 74.69917297 221.6686554 C84.54790348 221.64689473 94.39630264 221.65393444 104.2450251 221.67596102 C112.71322629 221.69413909 121.18132798 221.69666136 129.64954239 221.68620634 C134.70178502 221.67998375 139.75387214 221.67910163 144.80610466 221.69235229 C149.557867 221.70394496 154.3092041 221.6958228 159.06092072 221.67277527 C160.80031441 221.66750609 162.53974417 221.66897113 164.27912331 221.67782593 C178.30045194 221.96356988 178.30045194 221.96356988 190.26262569 215.42653656 C195.54191012 209.89485636 196.65361587 204.22304792 196.65797424 196.67048645 C196.66109422 195.93863742 196.66421421 195.2067884 196.66742873 194.45276213 C196.675377 192.01162268 196.66909756 189.570734 196.66279602 187.1295929 C196.66550729 185.37491714 196.66906899 183.62024253 196.67341614 181.86557007 C196.68252619 177.10738135 196.67900157 172.34927946 196.67265797 167.59108925 C196.66759083 162.60908908 196.67229141 157.62709629 196.6754303 152.64509583 C196.67906785 144.27907478 196.67427635 135.91308905 196.66474915 127.54707336 C196.65386501 117.877909 196.65739073 108.20882898 196.66840196 98.53966665 C196.67748081 90.23463008 196.67875718 81.92961888 196.67352462 73.62457895 C196.67040822 68.6657819 196.66998654 63.70702448 196.6765976 58.74822998 C196.6823791 54.08608493 196.67835937 49.42404853 196.66680908 44.76191521 C196.66416681 43.05189634 196.6649202 41.34186831 196.66933441 39.6318531 C196.67480841 37.2957309 196.66793339 34.95995575 196.65797424 32.62385559 C196.65722019 31.31717171 196.65646614 30.01048782 196.65568924 28.66420746 C196.40525724 25.16464262 195.66991948 22.40506927 194.40400696 19.14717102 C193.74400696 19.14717102 193.08400696 19.14717102 192.40400696 19.14717102 C192.21838196 18.42529602 192.03275696 17.70342102 191.84150696 16.95967102 C189.85971292 13.0822479 187.22800361 11.16692682 183.40400696 9.14717102 C180.52771862 8.67204945 178.25512506 8.46759981 175.39619446 8.51225281 C174.23081902 8.50055288 174.23081902 8.50055288 173.04190063 8.48861659 C170.45377859 8.46876582 167.86713837 8.48443296 165.27900696 8.50019836 C163.417426 8.49341914 161.55585175 8.48451429 159.69429016 8.47364807 C154.64877326 8.4508845 149.60376847 8.45967899 144.5582428 8.4755435 C139.27374407 8.48821768 133.98928869 8.47645816 128.70478821 8.46861267 C119.83101036 8.45952055 110.95744069 8.47149261 102.08369446 8.49531555 C91.82987789 8.52252591 81.57655843 8.51371144 71.32275391 8.48618352 C62.51319122 8.46348106 53.70377805 8.46029796 44.89419556 8.47337687 C39.63517612 8.48116509 34.37639022 8.48223017 29.11738586 8.46569443 C24.1726814 8.45123247 19.22861679 8.46130312 14.28398132 8.49016571 C12.47118695 8.49676727 10.65833856 8.49489475 8.8455658 8.48385239 C6.36692778 8.47014795 3.89032823 8.48736951 1.41181946 8.51225281 C0.69770401 8.5010992 -0.01641144 8.48994559 -0.75216675 8.47845399 C-7.74693761 8.61428072 -11.84210678 11.88558084 -15.97099304 17.20967102 Z " fill="#192D3E" transform="translate(31.595993041992188,7.8528289794921875)"/>
<path d="M0 0 C4.62 0 9.24 0 14 0 C15 1 15 1 15.12025452 3.39808655 C15.1169236 4.99359596 15.1169236 4.99359596 15.11352539 6.62133789 C15.11344986 7.82250748 15.11337433 9.02367706 15.11329651 10.26124573 C15.10813522 11.5685112 15.10297394 12.87577667 15.09765625 14.22265625 C15.09579198 15.56644132 15.09436812 16.91022707 15.09336853 18.25401306 C15.08954402 21.79682277 15.07971432 25.3395917 15.06866455 28.88238525 C15.05844899 32.49515227 15.0538706 36.10792584 15.04882812 39.72070312 C15.03809198 46.8138188 15.02101636 53.90690674 15 61 C15.78375 60.01 16.5675 59.02 17.375 58 C18.24125 57.01 19.1075 56.02 20 55 C20.66 55 21.32 55 22 55 C22.23332031 54.43796875 22.46664062 53.8759375 22.70703125 53.296875 C24.31937076 50.43265858 26.3193562 48.52747979 28.6875 46.25 C33.64845926 41.38940697 38.55956787 36.46894342 42.56640625 30.7734375 C43.03949219 30.18820313 43.51257813 29.60296875 44 29 C44.66 29 45.32 29 46 29 C46.38091797 28.12408203 46.38091797 28.12408203 46.76953125 27.23046875 C48.13226553 24.76024249 49.63281983 23.23800578 51.6875 21.3125 C55.32887893 17.77705209 58.42732703 14.04646135 61.45703125 9.98046875 C62.87962027 8.15451272 64.25237459 6.5178007 66 5 C66.66 5 67.32 5 68 5 C68.28875 4.360625 68.5775 3.72125 68.875 3.0625 C70 1 70 1 72 0 C74.71760108 -0.07181821 77.40859388 -0.09299506 80.125 -0.0625 C80.87910156 -0.05798828 81.63320312 -0.05347656 82.41015625 -0.04882812 C84.27347127 -0.03703499 86.13674555 -0.01909942 88 0 C87.4234559 3.40013186 86.39002339 4.92670485 83.875 7.25 C79.08091948 11.83735425 74.7383148 16.74488891 70.6875 22 C70.130625 22.66 69.57375 23.32 69 24 C68.34 24 67.68 24 67 24 C66.773125 24.53625 66.54625 25.0725 66.3125 25.625 C64.54429911 28.82460161 62.46329797 31.29037223 60 34 C59.34 34 58.68 34 58 34 C57.7628125 34.55171875 57.525625 35.1034375 57.28125 35.671875 C55.68754857 38.56774711 53.71082727 40.79512037 51.5 43.25 C50.30890625 44.58804688 50.30890625 44.58804688 49.09375 45.953125 C47 48 47 48 45 48 C44.76539063 48.55171875 44.53078125 49.1034375 44.2890625 49.671875 C42.67151842 52.59325764 40.63549805 54.79574497 38.375 57.25 C37.55773437 58.14203125 36.74046875 59.0340625 35.8984375 59.953125 C35.27195313 60.62859375 34.64546875 61.3040625 34 62 C34.495 62.94875 34.99 63.8975 35.5 64.875 C37 68 37 68 37 70 C37.66 70 38.32 70 39 70 C40.5078125 71.8984375 40.5078125 71.8984375 42.125 74.375 C42.66382813 75.18710938 43.20265625 75.99921875 43.7578125 76.8359375 C45 79 45 79 45 81 C45.66 81 46.32 81 47 81 C48.7265625 83.3359375 48.7265625 83.3359375 50.625 86.375 C51.25664063 87.37273437 51.88828125 88.37046875 52.5390625 89.3984375 C54 92 54 92 54 94 C54.66 94 55.32 94 56 94 C57.23830358 95.65714156 58.38848228 97.38028161 59.5 99.125 C62.57056328 103.84765982 65.71416768 108.4871144 69 113.0625 C69.41749512 113.64563965 69.83499023 114.2287793 70.26513672 114.82958984 C72.29438337 117.65573118 74.34057324 120.46786632 76.4140625 123.26171875 C77.14367187 124.24785156 77.87328125 125.23398438 78.625 126.25 C79.27726562 127.12140625 79.92953125 127.9928125 80.6015625 128.890625 C82 131 82 131 82 133 C82.66 133 83.32 133 84 133 C84 133.66 84 134.32 84 135 C84.66 135 85.32 135 86 135 C86.495 137.475 86.495 137.475 87 140 C84.39472895 140.10792837 81.79391689 140.18724878 79.1875 140.25 C78.44951172 140.28351563 77.71152344 140.31703125 76.95117188 140.3515625 C71.47945865 140.45059803 71.47945865 140.45059803 68.98828125 138.109375 C68 136 68 136 68 134 C67.34 134 66.68 134 66 134 C63 129.61538462 63 129.61538462 63 127 C62.34 127 61.68 127 61 127 C59.72093154 125.27956284 58.52789009 123.49491932 57.375 121.6875 C54.09432406 116.64257566 50.68588189 111.74877302 47.12109375 106.8984375 C44.78177037 103.70179303 42.48286345 100.47824804 40.1875 97.25 C34.86742224 89.77765197 29.44045994 82.38495893 24 75 C19.88694614 76.52335328 16.99289798 79.1330753 15 83 C14.24469874 87.34691082 14.27872508 91.65104174 14.29296875 96.0546875 C14.27784744 97.31137238 14.26272614 98.56805725 14.24714661 99.86282349 C14.2115259 103.1872934 14.19711483 106.51046109 14.19311523 109.83502197 C14.18375941 113.23393241 14.14633088 116.63252405 14.11132812 120.03125 C14.04844763 126.68756671 14.01613373 133.34341246 14 140 C9.38 140 4.76 140 0 140 C0 93.8 0 47.6 0 0 Z " fill="#475864" transform="translate(42,51)"/>
<path d="M0 0 C2.7226286 1.88489672 5.33328096 3.73118054 7.78515625 5.95703125 C7.78515625 6.61703125 7.78515625 7.27703125 7.78515625 7.95703125 C8.44515625 7.95703125 9.10515625 7.95703125 9.78515625 7.95703125 C9.27911633 10.12577377 8.78531812 11.95670752 7.78515625 13.95703125 C7.12515625 13.95703125 6.46515625 13.95703125 5.78515625 13.95703125 C5.78515625 14.61703125 5.78515625 15.27703125 5.78515625 15.95703125 C5.12515625 15.95703125 4.46515625 15.95703125 3.78515625 15.95703125 C3.78515625 16.61703125 3.78515625 17.27703125 3.78515625 17.95703125 C2.30015625 18.45203125 2.30015625 18.45203125 0.78515625 18.95703125 C-1.5625 17.19140625 -1.5625 17.19140625 -4.27734375 14.70703125 C-13.84418702 6.68684843 -23.22627445 6.11580229 -35.30761719 6.78417969 C-46.46709189 7.79556065 -53.54096213 14.97438684 -61.02734375 22.58203125 C-61.80271484 23.35804687 -62.57808594 24.1340625 -63.37695312 24.93359375 C-67.25206004 28.6044267 -67.25206004 28.6044267 -70.21484375 32.95703125 C-70.87484375 32.95703125 -71.53484375 32.95703125 -72.21484375 32.95703125 C-72.48296875 33.5396875 -72.75109375 34.12234375 -73.02734375 34.72265625 C-74.22965366 36.98489726 -75.55310288 38.76279443 -77.21484375 40.70703125 C-77.73046875 41.320625 -78.24609375 41.93421875 -78.77734375 42.56640625 C-80.21484375 43.95703125 -80.21484375 43.95703125 -82.21484375 43.95703125 C-86.28314322 55.6049601 -86.96427314 67.19985349 -82.3828125 78.78515625 C-81.22097924 80.9456221 -79.95498022 82.26176936 -78.21484375 83.95703125 C-78.21484375 84.61703125 -78.21484375 85.27703125 -78.21484375 85.95703125 C-77.55484375 85.95703125 -76.89484375 85.95703125 -76.21484375 85.95703125 C-76.21484375 86.61703125 -76.21484375 87.27703125 -76.21484375 87.95703125 C-75.55484375 87.95703125 -74.89484375 87.95703125 -74.21484375 87.95703125 C-69.21484375 93.43322173 -69.21484375 93.43322173 -69.21484375 95.95703125 C-68.55484375 95.95703125 -67.89484375 95.95703125 -67.21484375 95.95703125 C-63.21484375 100.42761949 -63.21484375 100.42761949 -63.21484375 102.95703125 C-62.55484375 102.95703125 -61.89484375 102.95703125 -61.21484375 102.95703125 C-61.21484375 103.61703125 -61.21484375 104.27703125 -61.21484375 104.95703125 C-60.55484375 104.95703125 -59.89484375 104.95703125 -59.21484375 104.95703125 C-59.21484375 105.61703125 -59.21484375 106.27703125 -59.21484375 106.95703125 C-58.55484375 106.95703125 -57.89484375 106.95703125 -57.21484375 106.95703125 C-57.21484375 107.61703125 -57.21484375 108.27703125 -57.21484375 108.95703125 C-56.36792969 109.37275391 -56.36792969 109.37275391 -55.50390625 109.796875 C-53.16467423 110.98245847 -50.87771147 112.23786622 -48.58984375 113.51953125 C-42.16794837 117.11451255 -37.59093345 117.23951473 -30.21484375 117.33203125 C-28.56548828 117.38810547 -28.56548828 117.38810547 -26.8828125 117.4453125 C-19.23929745 117.52691586 -13.59378709 116.28713927 -7.21484375 111.95703125 C-6.67085938 111.40708496 -6.126875 110.85713867 -5.56640625 110.29052734 C-4.21484375 108.95703125 -4.21484375 108.95703125 -2.21484375 108.95703125 C-2.21484375 108.29703125 -2.21484375 107.63703125 -2.21484375 106.95703125 C-0.89484375 106.29703125 0.42515625 105.63703125 1.78515625 104.95703125 C3.15392741 106.19102188 4.50484791 107.44483748 5.84765625 108.70703125 C6.97880859 109.75117188 6.97880859 109.75117188 8.1328125 110.81640625 C9.78515625 112.95703125 9.78515625 112.95703125 9.75 115.0078125 C6.16573241 122.24890371 -3.21241303 127.05131761 -10.47387695 129.81762695 C-16.74488674 131.82255521 -22.45937888 132.46802949 -29.02734375 132.39453125 C-29.99003174 132.38623291 -30.95271973 132.37793457 -31.94458008 132.36938477 C-44.16644389 132.08056602 -54.60947353 128.77222225 -64.21484375 120.95703125 C-64.21484375 120.29703125 -64.21484375 119.63703125 -64.21484375 118.95703125 C-64.87484375 118.95703125 -65.53484375 118.95703125 -66.21484375 118.95703125 C-66.21484375 118.29703125 -66.21484375 117.63703125 -66.21484375 116.95703125 C-66.87484375 116.95703125 -67.53484375 116.95703125 -68.21484375 116.95703125 C-68.21484375 116.29703125 -68.21484375 115.63703125 -68.21484375 114.95703125 C-68.87484375 114.95703125 -69.53484375 114.95703125 -70.21484375 114.95703125 C-71.5546875 113.62890625 -71.5546875 113.62890625 -73.15234375 111.70703125 C-75.42163837 109.02426346 -77.72155369 106.3904801 -80.12109375 103.82421875 C-80.62133057 103.28829102 -81.12156738 102.75236328 -81.63696289 102.20019531 C-82.64050395 101.12858742 -83.64746685 100.06017295 -84.65795898 98.99511719 C-88.21484375 95.17772994 -88.21484375 95.17772994 -88.21484375 92.95703125 C-88.87484375 92.95703125 -89.53484375 92.95703125 -90.21484375 92.95703125 C-91.6171875 91.3046875 -91.6171875 91.3046875 -93.15234375 89.01953125 C-93.90837891 87.92318359 -93.90837891 87.92318359 -94.6796875 86.8046875 C-98.88007811 79.01312323 -99.713363 71.85770933 -99.65234375 63.08203125 C-99.67232422 62.07011719 -99.69230469 61.05820313 -99.71289062 60.015625 C-99.70676064 50.44059021 -97.28828222 42.06409136 -91.58984375 34.26953125 C-90.99945313 33.44066406 -90.4090625 32.61179688 -89.80078125 31.7578125 C-89.27742188 31.16355469 -88.7540625 30.56929687 -88.21484375 29.95703125 C-87.55484375 29.95703125 -86.89484375 29.95703125 -86.21484375 29.95703125 C-86.21484375 29.29703125 -86.21484375 28.63703125 -86.21484375 27.95703125 C-85.55484375 27.95703125 -84.89484375 27.95703125 -84.21484375 27.95703125 C-83.97765625 27.39532227 -83.74046875 26.83361328 -83.49609375 26.25488281 C-81.92165018 23.43120467 -79.9979983 21.48088283 -77.71484375 19.19140625 C-76.82796875 18.30195312 -75.94109375 17.4125 -75.02734375 16.49609375 C-74.09921875 15.57570313 -73.17109375 14.6553125 -72.21484375 13.70703125 C-71.28671875 12.77117187 -70.35859375 11.8353125 -69.40234375 10.87109375 C-68.51546875 9.98679687 -67.62859375 9.1025 -66.71484375 8.19140625 C-65.90015625 7.37897461 -65.08546875 6.56654297 -64.24609375 5.72949219 C-62.21484375 3.95703125 -62.21484375 3.95703125 -60.21484375 3.95703125 C-60.21484375 3.29703125 -60.21484375 2.63703125 -60.21484375 1.95703125 C-57.8359375 0.30078125 -57.8359375 0.30078125 -54.65234375 -1.54296875 C-53.61980469 -2.15140625 -52.58726562 -2.75984375 -51.5234375 -3.38671875 C-35.95103102 -11.18211468 -14.4216927 -9.16469658 0 0 Z " fill="#0B72B1" transform="translate(202.21484375,59.04296875)"/>
<path d="M0 0 C0.24771133 20.55805175 0.46621435 41.11623074 0.65021229 61.67495537 C0.73632772 71.22133204 0.83189931 80.767437 0.94995117 90.31347656 C1.05285416 98.6364909 1.13779183 106.95946448 1.20140952 115.28287518 C1.23569742 119.68770852 1.27880793 124.09204662 1.34345436 128.4965477 C1.40410359 132.64808677 1.44060295 136.7991597 1.45913696 140.95109367 C1.47007014 142.46923762 1.48958515 143.98734971 1.51865196 145.50525475 C1.71578961 156.15496625 -0.09020274 163.13530411 -6 172 C-6.66 172 -7.32 172 -8 172 C-8 172.66 -8 173.32 -8 174 C-13.63406321 178.29261959 -18.77695512 180.2536742 -25.84664917 180.24050903 C-26.99080795 180.24325836 -28.13496674 180.24600769 -29.313797 180.24884033 C-30.55457504 180.24164978 -31.79535309 180.23445923 -33.07373047 180.22705078 C-34.39133865 180.22734283 -35.70894684 180.22763489 -37.06648254 180.22793579 C-40.66730709 180.22850818 -44.26799762 180.21677242 -47.8687911 180.20278788 C-51.63640756 180.19026146 -55.4040273 180.18910851 -59.17166138 180.18673706 C-66.30072531 180.1805279 -73.42972771 180.16412474 -80.55876458 180.14403808 C-88.67724119 180.12166151 -96.79572078 180.11068123 -104.91422057 180.10064721 C-121.60951637 180.079758 -138.30475033 180.04459301 -155 180 C-154.67 177.69 -154.34 175.38 -154 173 C-154.66 173 -155.32 173 -156 173 C-156.33 173.99 -156.66 174.98 -157 176 C-157 174.68 -157 173.36 -157 172 C-150.22779743 170.9718508 -143.6027409 170.8549411 -136.76000977 170.8581543 C-135.55410187 170.85467987 -134.34819397 170.85120544 -133.10574341 170.84762573 C-130.49708577 170.84029609 -127.888422 170.8349359 -125.27975655 170.83133507 C-121.14739505 170.82538349 -117.01511779 170.80880556 -112.88279724 170.78999329 C-111.46339135 170.78365734 -110.04398541 170.7773317 -108.62457943 170.77101612 C-107.55891949 170.7662674 -107.55891949 170.7662674 -106.47173107 170.76142275 C-96.86292314 170.71947163 -87.2541572 170.68636596 -77.64526367 170.67407227 C-71.14692083 170.6656733 -64.64878995 170.6431217 -58.15055317 170.6047166 C-54.71912963 170.58503033 -51.28802235 170.57252671 -47.85653877 170.57755089 C-44.02716392 170.5799068 -40.19864396 170.55771484 -36.36938477 170.5300293 C-35.24546829 170.53663071 -34.12155182 170.54323212 -32.96357727 170.55003357 C-25.69856175 170.46398055 -19.08266217 169.54688998 -13.41574955 164.62365246 C-9.05973372 159.79959482 -7.75568517 154.55677577 -7.72825623 148.20477295 C-7.71367874 146.50549149 -7.71367874 146.50549149 -7.69880676 144.7718811 C-7.69821762 143.54359589 -7.69762848 142.31531067 -7.69702148 141.04980469 C-7.68436249 139.09284164 -7.68436249 139.09284164 -7.67144775 137.09634399 C-7.65322326 134.26772279 -7.64115049 131.43916698 -7.63390923 128.61049652 C-7.62239748 124.13993697 -7.59693268 119.66952244 -7.56959534 115.19903564 C-7.52800922 108.1326147 -7.49556114 101.06618674 -7.46712118 93.99970174 C-7.41605866 81.33127031 -7.3540462 68.66289901 -7.28178078 55.99457097 C-7.25683769 51.54774731 -7.23741643 47.10094301 -7.22239864 42.65407515 C-7.2146635 40.55764989 -7.20473758 38.4612487 -7.19384766 36.36483765 C-7.18065746 33.80524339 -7.17107501 31.24562716 -7.16566467 28.68600464 C-7.15876617 27.56442963 -7.15186768 26.44285461 -7.14476013 25.28729248 C-7.14090522 24.3087669 -7.1370503 23.33024132 -7.13307858 22.32206345 C-7 20 -7 20 -6 18 C-6 16.906875 -6 15.81375 -6 14.6875 C-6 11.55413516 -5.67318782 9.02934521 -5 6 C-5 5.01 -5 4.02 -5 3 C-1.55555556 0 -1.55555556 0 0 0 Z " fill="#1E2A35" transform="translate(235,58)"/>
<path d="M0 0 C24.37395162 -0.09346687 48.74787636 -0.16399082 73.12197113 -0.20724869 C84.43944797 -0.22786848 95.75681341 -0.25597807 107.07421875 -0.30175781 C116.93917875 -0.34164326 126.80405807 -0.36743705 136.66909647 -0.37635398 C141.89194127 -0.3815658 147.11455527 -0.39380356 152.33732605 -0.42292023 C157.25552554 -0.45011619 162.17339963 -0.45843649 167.09166718 -0.45243073 C168.89438903 -0.45352909 170.69712203 -0.46145801 172.49977875 -0.4768219 C174.96716734 -0.49681568 177.43333822 -0.49190564 179.90075684 -0.48101807 C180.60895238 -0.49266943 181.31714793 -0.5043208 182.04680395 -0.51632524 C189.45463532 -0.42837531 195.97231591 3.08319235 201.27370167 8.13717842 C209.28160931 16.77838653 208.68759868 27.08732652 208.56762695 38.11767578 C208.56621472 39.94178732 208.56701189 41.7659017 208.56983948 43.5900116 C208.57126819 48.51720041 208.54196696 53.44377485 208.50696969 58.37082148 C208.47561501 63.52907311 208.47276828 68.68734038 208.46684265 73.84567261 C208.45133094 83.60257372 208.41033868 93.35919315 208.3600952 103.11597049 C208.30411848 114.22840576 208.2766943 125.34085481 208.25161803 136.45339608 C208.19942045 159.30241993 208.11153022 182.15119415 208 205 C207.67 205 207.34 205 207 205 C206.67 154.18 206.34 103.36 206 51 C204.68 52.32 203.36 53.64 202 55 C202.33 55.66 202.66 56.32 203 57 C202.6913753 59.33672984 202.35543427 61.66993089 202 64 C201.96454703 65.66628955 201.94951812 67.33409803 202 69 C201.01 69.495 201.01 69.495 200 70 C199.9845388 69.17434036 199.9845388 69.17434036 199.96876526 68.33200073 C199.8603583 62.58905986 199.74578949 56.84626509 199.62768555 51.10351562 C199.58444604 48.96194524 199.54276344 46.82034282 199.50268555 44.67871094 C199.44471629 41.59560504 199.38109921 38.51265876 199.31640625 35.4296875 C199.29133751 33.99965897 199.29133751 33.99965897 199.26576233 32.54074097 C199.16364567 27.9304096 198.92767476 23.53603243 198 19 C197.34 19 196.68 19 196 19 C195.38125 17.88625 195.38125 17.88625 194.75 16.75 C192.62152499 13.40525355 190.65337236 11.4665476 187 10 C182.65281658 9.38374765 178.3303143 9.41898506 173.9453125 9.42578125 C172.57824586 9.41350873 171.2111942 9.39946366 169.84416199 9.38381958 C166.06780756 9.34552845 162.29169139 9.33164348 158.51517105 9.32148361 C154.4789902 9.30631337 150.44302441 9.2684015 146.40698242 9.23266602 C139.12765067 9.17094047 131.84831806 9.12298718 124.56884766 9.08105469 C110.41407064 8.99760094 96.25983041 8.86169862 82.10546875 8.7265625 C76.96403142 8.6778222 71.82259231 8.62927176 66.68115234 8.58081055 C64.77597147 8.56282992 64.77597147 8.56282992 62.83230209 8.54448605 C49.17602957 8.41626967 35.51966809 8.29889892 21.86328125 8.18359375 C20.73954794 8.17409824 19.61581463 8.16460274 18.45802879 8.15481949 C12.3053552 8.10289069 6.15267899 8.05128464 0 8 C0.66 6.35 1.32 4.7 2 3 C1.34 2.67 0.68 2.34 0 2 C0 1.34 0 0.68 0 0 Z " fill="#1D4D69" transform="translate(28,8)"/>
<path d="M0 0 C0.99 0 1.98 0 3 0 C5.66666667 5.33333333 8.33333333 10.66666667 11 16 C11.66 16 12.32 16 13 16 C13 16.66 13 17.32 13 18 C13.66 18 14.32 18 15 18 C20 23.47619048 20 23.47619048 20 26 C20.66 26 21.32 26 22 26 C26 30.47058824 26 30.47058824 26 33 C26.66 33 27.32 33 28 33 C28 33.66 28 34.32 28 35 C28.66 35 29.32 35 30 35 C30 35.66 30 36.32 30 37 C30.66 37 31.32 37 32 37 C32 37.66 32 38.32 32 39 C32.56460938 39.27714844 33.12921875 39.55429688 33.7109375 39.83984375 C36.05016952 41.02542722 38.33713228 42.28083497 40.625 43.5625 C47.04689538 47.1574813 51.6239103 47.28248348 59 47.375 C60.64935547 47.43107422 60.64935547 47.43107422 62.33203125 47.48828125 C69.9755463 47.56988461 75.62105666 46.33010802 82 42 C82.54398437 41.45005371 83.08796875 40.90010742 83.6484375 40.33349609 C85 39 85 39 87 39 C87 38.34 87 37.68 87 37 C88.32 36.34 89.64 35.68 91 35 C92.36877116 36.23399063 93.71969166 37.48780623 95.0625 38.75 C95.81660156 39.44609375 96.57070312 40.1421875 97.34765625 40.859375 C99 43 99 43 98.96484375 45.05078125 C95.38057616 52.29187246 86.00243072 57.09428636 78.7409668 59.8605957 C72.46995701 61.86552396 66.75546487 62.51099824 60.1875 62.4375 C59.22481201 62.42920166 58.26212402 62.42090332 57.27026367 62.41235352 C45.04839986 62.12353477 34.60537022 58.815191 25 51 C25 50.34 25 49.68 25 49 C24.34 49 23.68 49 23 49 C23 48.34 23 47.68 23 47 C22.34 47 21.68 47 21 47 C21 46.34 21 45.68 21 45 C20.34 45 19.68 45 19 45 C17.66015625 43.671875 17.66015625 43.671875 16.0625 41.75 C13.79320538 39.06723221 11.49329006 36.43344885 9.09375 33.8671875 C8.34339478 33.0632959 8.34339478 33.0632959 7.57788086 32.24316406 C6.5743398 31.17155617 5.5673769 30.1031417 4.55688477 29.03808594 C1 25.22069869 1 25.22069869 1 23 C0.34 23 -0.32 23 -1 23 C-2.54296875 21.13671875 -2.54296875 21.13671875 -4.1875 18.6875 C-4.73792969 17.88699219 -5.28835937 17.08648437 -5.85546875 16.26171875 C-6.42201172 15.14216797 -6.42201172 15.14216797 -7 14 C-6.67 13.01 -6.34 12.02 -6 11 C-6.87914688 8.3430809 -6.87914688 8.3430809 -8 6 C-5.69 5.34 -3.38 4.68 -1 4 C-0.67 2.68 -0.34 1.36 0 0 Z " fill="#0B6DAB" transform="translate(113,129)"/>
<path d="M0 0 C3.57637783 1.19212594 3.99572234 2.09228527 5.99609375 5.18359375 C6.55490234 6.02857422 7.11371094 6.87355469 7.68945312 7.74414062 C8.85187629 9.53518146 10.01333986 11.32684548 11.17382812 13.11914062 C11.73392578 13.96541016 12.29402344 14.81167969 12.87109375 15.68359375 C13.37568115 16.46275146 13.88026855 17.24190918 14.40014648 18.04467773 C16.12784704 20.15625316 17.56443256 20.86460096 20 22 C20.75 24.125 20.75 24.125 21 26 C21.66 26 22.32 26 23 26 C24.23830358 27.65714156 25.38848228 29.38028161 26.5 31.125 C29.57056328 35.84765982 32.71416768 40.4871144 36 45.0625 C36.41749512 45.64563965 36.83499023 46.2287793 37.26513672 46.82958984 C39.29438337 49.65573118 41.34057324 52.46786632 43.4140625 55.26171875 C44.14367187 56.24785156 44.87328125 57.23398438 45.625 58.25 C46.60339844 59.55710937 46.60339844 59.55710937 47.6015625 60.890625 C49 63 49 63 49 65 C49.66 65 50.32 65 51 65 C51 65.66 51 66.32 51 67 C51.66 67 52.32 67 53 67 C53.33 68.65 53.66 70.3 54 72 C51.39472895 72.10792837 48.79391689 72.18724878 46.1875 72.25 C45.44951172 72.28351563 44.71152344 72.31703125 43.95117188 72.3515625 C38.47945865 72.45059803 38.47945865 72.45059803 35.98828125 70.109375 C35 68 35 68 35 66 C34.34 66 33.68 66 33 66 C30 61.61538462 30 61.61538462 30 59 C29.34 59 28.68 59 28 59 C26.72093154 57.27956284 25.52789009 55.49491932 24.375 53.6875 C21.09789196 48.64806228 17.69344589 43.75931656 14.1328125 38.9140625 C11.72799428 35.62835849 9.36166876 32.31676862 7 29 C2.70436004 22.97219373 -1.63337537 16.976665 -6 11 C-1.25 5.25 -1.25 5.25 1 3 C0.34 3 -0.32 3 -1 3 C-0.67 2.01 -0.34 1.02 0 0 Z " fill="#2C3945" transform="translate(75,119)"/>
<path d="M0 0 C1.39496081 -0.01679897 2.78985643 -0.04061605 4.18457031 -0.07177734 C12.24777392 -0.24411767 18.13315886 -0.16351965 24.98339844 4.28710938 C25.68851562 4.733125 26.39363281 5.17914063 27.12011719 5.63867188 C33.14596082 10.58684574 36.52604397 16.34398023 37.43166542 24.1518898 C37.66245264 28.90249808 37.60273558 33.65048661 37.55102539 38.40478516 C37.54961316 40.2288967 37.55041032 42.05301108 37.55323792 43.87712097 C37.55466662 48.80430978 37.5253654 53.73088423 37.49036813 58.65793085 C37.45901345 63.81618248 37.45616671 68.97444975 37.45024109 74.13278198 C37.43472938 83.88968309 37.39373711 93.64630253 37.34349364 103.40307987 C37.28751691 114.51551514 37.26009274 125.62796419 37.23501647 136.74050546 C37.18281889 159.5895293 37.09492865 182.43830352 36.98339844 205.28710938 C36.65339844 205.28710938 36.32339844 205.28710938 35.98339844 205.28710938 C35.65339844 154.46710938 35.32339844 103.64710937 34.98339844 51.28710938 C33.66339844 52.60710938 32.34339844 53.92710938 30.98339844 55.28710938 C31.31339844 55.94710937 31.64339844 56.60710937 31.98339844 57.28710938 C31.67477374 59.62383922 31.33883271 61.95704027 30.98339844 64.28710938 C30.94794547 65.95339893 30.93291656 67.62120741 30.98339844 69.28710938 C29.99339844 69.78210938 29.99339844 69.78210938 28.98339844 70.28710938 C28.96793724 69.46144974 28.96793724 69.46144974 28.9521637 68.61911011 C28.84375674 62.87616924 28.72918793 57.13337446 28.61108398 51.390625 C28.56784447 49.24905462 28.52616188 47.1074522 28.48608398 44.96582031 C28.42811472 41.88271441 28.36449764 38.79976813 28.29980469 35.71679688 C28.28309219 34.76344452 28.2663797 33.81009216 28.24916077 32.82785034 C28.14704411 28.21751897 27.91107319 23.82314181 26.98339844 19.28710938 C26.32339844 19.28710938 25.66339844 19.28710938 24.98339844 19.28710938 C24.63277344 18.56523437 24.28214844 17.84335937 23.92089844 17.09960938 C21.05015128 12.93239576 17.69729392 11.05561503 12.98339844 9.28710938 C8.16536729 8.5731043 3.4064205 8.56547192 -1.45800781 8.58007812 C-2.83522201 8.56693868 -4.21241703 8.55162762 -5.58958435 8.53425598 C-9.18497018 8.49465403 -12.77984911 8.48423183 -16.37542725 8.48022461 C-20.05610288 8.47084579 -23.73648644 8.43340312 -27.41699219 8.3984375 C-34.61686496 8.33411512 -41.81643503 8.30066775 -49.01660156 8.28710938 C-49.01660156 7.95710937 -49.01660156 7.62710937 -49.01660156 7.28710938 C-37.79660156 6.95710937 -26.57660156 6.62710937 -15.01660156 6.28710938 C-15.67660156 4.96710937 -16.33660156 3.64710937 -17.01660156 2.28710938 C-17.82355469 2.45082031 -18.63050781 2.61453125 -19.46191406 2.78320312 C-23.64428945 3.37608931 -27.67604974 3.3960519 -31.89160156 3.34960938 C-32.67535156 3.34509766 -33.45910156 3.34058594 -34.26660156 3.3359375 C-36.1833017 3.3242503 -38.09996205 3.30631846 -40.01660156 3.28710938 C-40.34660156 2.62710937 -40.67660156 1.96710937 -41.01660156 1.28710938 C-27.35350957 0.61957785 -13.6792981 0.13773206 0 0 Z " fill="#638A9B" transform="translate(199.0166015625,7.712890625)"/>
<path d="M0 0 C0.33 0 0.66 0 1 0 C1.01981934 0.74161377 1.03963867 1.48322754 1.06005859 2.24731445 C1.15522928 5.60273834 1.26494094 8.95753286 1.375 12.3125 C1.4059375 13.47974609 1.436875 14.64699219 1.46875 15.84960938 C1.50742188 16.96787109 1.54609375 18.08613281 1.5859375 19.23828125 C1.6173584 20.26993408 1.6487793 21.30158691 1.68115234 22.36450195 C1.82674629 25.22843236 1.82674629 25.22843236 4 28 C5.27332239 26.95608728 5.27332239 26.95608728 5.0625 24.62890625 C5.041875 23.61699219 5.02125 22.60507813 5 21.5625 C4.94643684 15.97184522 5.31306502 10.54454666 6 5 C6.33 5 6.66 5 7 5 C7 11.93 7 18.86 7 26 C7.66 26 8.32 26 9 26 C10.25664978 28.90600261 11 30.79604584 11 34 C11.66 34 12.32 34 13 34 C13.763125 34.78375 14.52625 35.5675 15.3125 36.375 C19.51289571 40.47771209 23.11978356 41.24339586 28.8918457 41.31884766 C30.63308464 41.34865219 30.63308464 41.34865219 32.40950012 41.37905884 C33.65237289 41.39061005 34.89524567 41.40216125 36.17578125 41.4140625 C37.45607712 41.43342865 38.73637299 41.4527948 40.0554657 41.4727478 C43.4468778 41.52393948 46.83832945 41.56363407 50.22991943 41.60089111 C53.6956958 41.64101249 57.16130948 41.69206758 60.62695312 41.7421875 C67.41786395 41.83818145 74.20884594 41.92324652 81 42 C81 42.33 81 42.66 81 43 C78.36 43 75.72 43 73 43 C74.485 43.495 74.485 43.495 76 44 C76.6875 46.0625 76.6875 46.0625 77 48 C78.65 48.33 80.3 48.66 82 49 C82 49.33 82 49.66 82 50 C75.60783018 51.13221977 69.3014753 51.19541325 62.8203125 51.23828125 C61.65297577 51.246353 60.48563904 51.25442474 59.28292847 51.26274109 C56.82030705 51.27653144 54.35766692 51.28727601 51.89501953 51.29516602 C49.38519665 51.3067058 46.87539869 51.32718878 44.36572266 51.35668945 C40.72541753 51.39944071 37.08583773 51.41554352 33.4453125 51.42578125 C32.33253937 51.44328934 31.21976624 51.46079742 30.07327271 51.47883606 C20.75079877 51.45305395 13.52071678 49.12968999 6.5703125 42.77734375 C1.09822834 36.58381566 -1.12411819 30.12881766 -1.1328125 21.9921875 C-1.13410156 20.84105469 -1.13539062 19.68992188 -1.13671875 18.50390625 C-1.13285156 17.30636719 -1.12898437 16.10882813 -1.125 14.875 C-1.12886719 13.66972656 -1.13273438 12.46445313 -1.13671875 11.22265625 C-1.13542969 10.07410156 -1.13414063 8.92554688 -1.1328125 7.7421875 C-1.13168457 6.6888623 -1.13055664 5.63553711 -1.12939453 4.55029297 C-1 2 -1 2 0 0 Z " fill="#1989BA" transform="translate(5,187)"/>
<path d="M0 0 C2.9205849 2.61484874 3.76793427 5.11204513 5.04296875 8.80078125 C6.44807561 12.02965947 8.50463092 14.60031026 10.6953125 17.3359375 C12 19 12 19 13 21 C13.66 21 14.32 21 15 21 C16.58533702 22.71332754 18.09541215 24.49689047 19.5625 26.3125 C20.36816406 27.29863281 21.17382812 28.28476563 22.00390625 29.30078125 C24 32 24 32 25 35 C26.65948148 36.01187895 28.32580562 37.0126546 30 38 C30 38.66 30 39.32 30 40 C31.7015625 40.86625 31.7015625 40.86625 33.4375 41.75 C36.86983743 43.68760984 36.86983743 43.68760984 37.9375 46.25 C37.958125 46.8275 37.97875 47.405 38 48 C38.86625 48.185625 38.86625 48.185625 39.75 48.375 C42.02335767 49.00648824 43.9253529 49.88858191 46 51 C44.625 52.5 44.625 52.5 43 54 C42.34 54 41.68 54 41 54 C41 54.99 41 55.98 41 57 C39.35 56.67 37.7 56.34 36 56 C36 55.34 36 54.68 36 54 C34.39125 54.0928125 34.39125 54.0928125 32.75 54.1875 C28.91054943 53.99552747 27.61381519 53.71836779 25 51 C25 50.34 25 49.68 25 49 C24.34 49 23.68 49 23 49 C23 48.34 23 47.68 23 47 C22.34 47 21.68 47 21 47 C21 46.34 21 45.68 21 45 C20.34 45 19.68 45 19 45 C17.66015625 43.671875 17.66015625 43.671875 16.0625 41.75 C13.79320538 39.06723221 11.49329006 36.43344885 9.09375 33.8671875 C8.34339478 33.0632959 8.34339478 33.0632959 7.57788086 32.24316406 C6.5743398 31.17155617 5.5673769 30.1031417 4.55688477 29.03808594 C1 25.22069869 1 25.22069869 1 23 C0.34 23 -0.32 23 -1 23 C-2.54296875 21.13671875 -2.54296875 21.13671875 -4.1875 18.6875 C-4.73792969 17.88699219 -5.28835937 17.08648437 -5.85546875 16.26171875 C-6.42201172 15.14216797 -6.42201172 15.14216797 -7 14 C-6.67 13.01 -6.34 12.02 -6 11 C-6.87914688 8.3430809 -6.87914688 8.3430809 -8 6 C-5.69 5.34 -3.38 4.68 -1 4 C-0.67 2.68 -0.34 1.36 0 0 Z " fill="#0672B6" transform="translate(113,129)"/>
<path d="M0 0 C0.75410156 0.00451172 1.50820312 0.00902344 2.28515625 0.01367188 C4.14847127 0.02546501 6.01174555 0.04340058 7.875 0.0625 C7.2984559 3.46263186 6.26502339 4.98920485 3.75 7.3125 C-1.04408052 11.89985425 -5.3866852 16.80738891 -9.4375 22.0625 C-9.994375 22.7225 -10.55125 23.3825 -11.125 24.0625 C-11.785 24.0625 -12.445 24.0625 -13.125 24.0625 C-13.4653125 24.866875 -13.4653125 24.866875 -13.8125 25.6875 C-15.58070089 28.88710161 -17.66170203 31.35287223 -20.125 34.0625 C-20.785 34.0625 -21.445 34.0625 -22.125 34.0625 C-22.455 35.0525 -22.785 36.0425 -23.125 37.0625 C-24.3327558 33.43923261 -23.66811128 32.42103631 -22.125 29.0625 C-22.785 29.0625 -23.445 29.0625 -24.125 29.0625 C-24.125 26.72916667 -24.125 24.39583333 -24.125 22.0625 C-25.445 24.3725 -26.765 26.6825 -28.125 29.0625 C-28.785 29.0625 -29.445 29.0625 -30.125 29.0625 C-30.455 31.3725 -30.785 33.6825 -31.125 36.0625 C-34.59 36.5575 -34.59 36.5575 -38.125 37.0625 C-36.81886058 33.14408173 -35.29370152 30.73609191 -32.125 28.0625 C-31.465 28.0625 -30.805 28.0625 -30.125 28.0625 C-30.125 27.4025 -30.125 26.7425 -30.125 26.0625 C-30.785 25.7325 -31.445 25.4025 -32.125 25.0625 C-31.62871094 24.58941406 -31.13242188 24.11632812 -30.62109375 23.62890625 C-26.22942407 19.35390332 -22.33021457 14.95785922 -18.66796875 10.04296875 C-17.24537973 8.21701272 -15.87262541 6.5803007 -14.125 5.0625 C-13.465 5.0625 -12.805 5.0625 -12.125 5.0625 C-11.83625 4.423125 -11.5475 3.78375 -11.25 3.125 C-8.86443017 -1.24854468 -4.39912911 -0.04938573 0 0 Z " fill="#324250" transform="translate(122.125,50.9375)"/>
<path d="M0 0 C5.98940303 2.8362302 11.71292613 6.54074256 16.625 11 C16.625 11.66 16.625 12.32 16.625 13 C17.285 13 17.945 13 18.625 13 C18.295 14.32 17.965 15.64 17.625 17 C15.975 17 14.325 17 12.625 17 C12.625 16.34 12.625 15.68 12.625 15 C9.655 15.66 6.685 16.32 3.625 17 C3.625 16.34 3.625 15.68 3.625 15 C2.635 14.67 1.645 14.34 0.625 14 C1.285 12.35 1.945 10.7 2.625 9 C1.965 9 1.305 9 0.625 9 C0.295 9.99 -0.035 10.98 -0.375 12 C-4.10987777 11.5020163 -6.18737635 11.12508244 -9.375 9 C-12.57267106 8.83281537 -12.57267106 8.83281537 -16.125 9 C-22.25040107 9.0949184 -26.86282725 8.75608638 -32.375 6 C-32.375 5.34 -32.375 4.68 -32.375 4 C-33.035 4 -33.695 4 -34.375 4 C-34.705 4.66 -35.035 5.32 -35.375 6 C-36.035 4.02 -36.695 2.04 -37.375 0 C-27.03562938 -4.68385664 -10.59352289 -3.80905121 0 0 Z M-34.375 7 C-33.055 7.33 -31.735 7.66 -30.375 8 C-31.695 8.33 -33.015 8.66 -34.375 9 C-34.375 8.34 -34.375 7.68 -34.375 7 Z " fill="#1898CE" transform="translate(193.375,54)"/>
<path d="M0 0 C3.57637783 1.19212594 3.99572234 2.09228527 5.99609375 5.18359375 C6.55490234 6.02857422 7.11371094 6.87355469 7.68945312 7.74414062 C8.85187629 9.53518146 10.01333986 11.32684548 11.17382812 13.11914062 C11.73392578 13.96541016 12.29402344 14.81167969 12.87109375 15.68359375 C13.37568115 16.46275146 13.88026855 17.24190918 14.40014648 18.04467773 C16.12784704 20.15625316 17.56443256 20.86460096 20 22 C20.75 24.125 20.75 24.125 21 26 C21.66 26 22.32 26 23 26 C24.26004539 27.67703883 25.43129522 29.42099233 26.5625 31.1875 C27.26503906 32.26902344 27.96757813 33.35054687 28.69140625 34.46484375 C29.06410645 35.03960449 29.43680664 35.61436523 29.82080078 36.20654297 C31.82708118 39.25791684 33.9136097 42.25307882 36 45.25 C36.39775635 45.82258545 36.7955127 46.3951709 37.20532227 46.98510742 C38.1359264 48.32406927 39.0678133 49.66213945 40 51 C39.505 51.99 39.505 51.99 39 53 C35.11090442 48.0778634 31.2944713 43.10498529 27.5625 38.0625 C26.88316406 37.14597656 26.20382813 36.22945312 25.50390625 35.28515625 C24 33 24 33 24 31 C22.9275 31.20625 21.855 31.4125 20.75 31.625 C17.12380904 31.9876191 15.91708924 31.98362069 13 30 C13.66 30.66 14.32 31.32 15 32 C15.69748583 33.31747324 16.36959957 34.64914193 17 36 C15.02 36.495 15.02 36.495 13 37 C-0.36827195 19.32754958 -0.36827195 19.32754958 -6 10 C-4.47005208 8.76302083 -2.94010417 7.52604167 -1.41015625 6.2890625 C0.13266437 5.0333609 0.13266437 5.0333609 1 3 C0.34 3 -0.32 3 -1 3 C-0.67 2.01 -0.34 1.02 0 0 Z " fill="#313F4B" transform="translate(75,119)"/>
<path d="M0 0 C0.69480469 0.39574219 1.38960937 0.79148438 2.10546875 1.19921875 C2.10546875 1.85921875 2.10546875 2.51921875 2.10546875 3.19921875 C3.31203125 3.38484375 3.31203125 3.38484375 4.54296875 3.57421875 C5.38859375 3.78046875 6.23421875 3.98671875 7.10546875 4.19921875 C7.43546875 4.85921875 7.76546875 5.51921875 8.10546875 6.19921875 C13.4603509 7.82069708 19.08791328 7.12746145 24.609375 6.94140625 C28.37439498 7.21905018 29.31500429 7.86670798 32.10546875 10.19921875 C33.42546875 10.19921875 34.74546875 10.19921875 36.10546875 10.19921875 C36.43546875 9.53921875 36.76546875 8.87921875 37.10546875 8.19921875 C37.76546875 8.19921875 38.42546875 8.19921875 39.10546875 8.19921875 C38.77546875 9.84921875 38.44546875 11.49921875 38.10546875 13.19921875 C38.76546875 13.52921875 39.42546875 13.85921875 40.10546875 14.19921875 C40.10546875 14.85921875 40.10546875 15.51921875 40.10546875 16.19921875 C43.07546875 15.53921875 46.04546875 14.87921875 49.10546875 14.19921875 C49.10546875 14.85921875 49.10546875 15.51921875 49.10546875 16.19921875 C49.76546875 16.19921875 50.42546875 16.19921875 51.10546875 16.19921875 C51.43546875 15.53921875 51.76546875 14.87921875 52.10546875 14.19921875 C52.60046875 16.17921875 52.60046875 16.17921875 53.10546875 18.19921875 C52.44546875 18.19921875 51.78546875 18.19921875 51.10546875 18.19921875 C51.10546875 18.85921875 51.10546875 19.51921875 51.10546875 20.19921875 C50.44546875 20.19921875 49.78546875 20.19921875 49.10546875 20.19921875 C49.10546875 20.85921875 49.10546875 21.51921875 49.10546875 22.19921875 C47.62046875 22.69421875 47.62046875 22.69421875 46.10546875 23.19921875 C43.7578125 21.43359375 43.7578125 21.43359375 41.04296875 18.94921875 C31.47612548 10.92903593 22.09403805 10.35798979 10.01269531 11.02636719 C3.24947263 11.63931671 -1.37168048 14.43363868 -6.89453125 18.19921875 C-9.76953125 18.94921875 -9.76953125 18.94921875 -11.89453125 19.19921875 C-13.54453125 16.88921875 -15.19453125 14.57921875 -16.89453125 12.19921875 C-15.24453125 12.19921875 -13.59453125 12.19921875 -11.89453125 12.19921875 C-11.89453125 13.18921875 -11.89453125 14.17921875 -11.89453125 15.19921875 C-10.90453125 15.19921875 -9.91453125 15.19921875 -8.89453125 15.19921875 C-8.89453125 14.20921875 -8.89453125 13.21921875 -8.89453125 12.19921875 C-10.87453125 11.20921875 -12.85453125 10.21921875 -14.89453125 9.19921875 C-14.89453125 8.20921875 -14.89453125 7.21921875 -14.89453125 6.19921875 C-12.4453125 4.3046875 -12.4453125 4.3046875 -9.20703125 2.38671875 C-8.15128906 1.74089844 -7.09554687 1.09507813 -6.0078125 0.4296875 C-2.89453125 -0.80078125 -2.89453125 -0.80078125 0 0 Z M2.10546875 6.19921875 C2.10546875 6.85921875 2.10546875 7.51921875 2.10546875 8.19921875 C3.42546875 7.86921875 4.74546875 7.53921875 6.10546875 7.19921875 C4.78546875 6.86921875 3.46546875 6.53921875 2.10546875 6.19921875 Z " fill="#1E85B4" transform="translate(156.89453125,54.80078125)"/>
<path d="M0 0 C9.57 0 19.14 0 29 0 C29 0.33 29 0.66 29 1 C26.36 1 23.72 1 21 1 C21.99 1.33 22.98 1.66 24 2 C24.6875 4.0625 24.6875 4.0625 25 6 C27.475 6.495 27.475 6.495 30 7 C30 7.33 30 7.66 30 8 C23.4979617 9.18107421 17.09818888 9.12737969 10.50390625 9.09765625 C8.72088356 9.09553383 8.72088356 9.09553383 6.90184021 9.09336853 C3.12203406 9.08779114 -0.65771189 9.07524275 -4.4375 9.0625 C-7.0071606 9.05748208 -9.57682213 9.05291968 -12.14648438 9.04882812 C-18.43100997 9.03782911 -24.71550068 9.0211135 -31 9 C-31 8.67 -31 8.34 -31 8 C-26.05 7.67 -21.1 7.34 -16 7 C-17.77375 6.855625 -19.5475 6.71125 -21.375 6.5625 C-26.75 6.125 -26.75 6.125 -29 5 C-28.67 4.01 -28.34 3.02 -28 2 C-18.76 1.67 -9.52 1.34 0 1 C0 0.67 0 0.34 0 0 Z " fill="#0D648E" transform="translate(57,229)"/>
<path d="M0 0 C4.83010873 0.43910079 6.77420123 1.42857993 10 5 C10.66 5 11.32 5 12 5 C12.268125 6.051875 12.53625 7.10375 12.8125 8.1875 C13.77578216 11.89222783 13.77578216 11.89222783 15.54492188 14.36328125 C18.21251027 19.19716626 17.51184898 24.59686612 17.5 30 C17.52835938 31.175625 17.55671875 32.35125 17.5859375 33.5625 C17.60508036 41.98535844 17.60508036 41.98535844 15.8515625 44.92578125 C14.46875 46.3125 14.46875 46.3125 12 48 C12.33 48.66 12.66 49.32 13 50 C12.6913753 52.33672984 12.35543427 54.66993089 12 57 C11.96454703 58.66628955 11.94951812 60.33409803 12 62 C11.01 62.495 11.01 62.495 10 63 C9.98969254 62.44956024 9.97938507 61.89912048 9.96876526 61.33200073 C9.8603583 55.58905986 9.74578949 49.84626509 9.62768555 44.10351562 C9.58444604 41.96194524 9.54276344 39.82034282 9.50268555 37.67871094 C9.44471629 34.59560504 9.38109921 31.51265876 9.31640625 28.4296875 C9.29969376 27.47633514 9.28298126 26.52298279 9.26576233 25.54074097 C9.16364567 20.9304096 8.92767476 16.53603243 8 12 C7.34 12 6.68 12 6 12 C4.9935725 10.33720673 3.99414593 8.67016516 3 7 C2.01 6.34 1.02 5.68 0 5 C-0.1875 2.375 -0.1875 2.375 0 0 Z " fill="#20A9DA" transform="translate(218,15)"/>
<path d="M0 0 C51.48 0 102.96 0 156 0 C156 0.33 156 0.66 156 1 C147.42 1 138.84 1 130 1 C129.67 1.66 129.34 2.32 129 3 C107.88 2.34 86.76 1.68 65 1 C65 1.66 65 2.32 65 3 C43.31084176 3.14924786 21.67576718 2.75681015 0 2 C0 1.34 0 0.68 0 0 Z " fill="#31475A" transform="translate(28,8)"/>
<path d="M0 0 C1.41538534 -0.00681019 2.83075856 -0.01703805 4.24609375 -0.03076172 C6.24545783 -0.04867843 8.2449414 -0.05123415 10.24438477 -0.05322266 C11.96782104 -0.05938599 11.96782104 -0.05938599 13.72607422 -0.06567383 C16.82374686 0.17765011 19.02409307 0.85885896 21.81860352 2.17724609 C21.81860352 2.50724609 21.81860352 2.83724609 21.81860352 3.17724609 C16.53860352 2.84724609 11.25860352 2.51724609 5.81860352 2.17724609 C5.81860352 2.83724609 5.81860352 3.49724609 5.81860352 4.17724609 C8.45860352 3.84724609 11.09860352 3.51724609 13.81860352 3.17724609 C13.15860352 4.49724609 12.49860352 5.81724609 11.81860352 7.17724609 C-8.52505603 7.8996881 -28.82253999 8.33510434 -49.18139648 8.17724609 C-49.18139648 7.84724609 -49.18139648 7.51724609 -49.18139648 7.17724609 C-37.96139648 6.84724609 -26.74139648 6.51724609 -15.18139648 6.17724609 C-15.84139648 4.85724609 -16.50139648 3.53724609 -17.18139648 2.17724609 C-17.98834961 2.34095703 -18.79530273 2.50466797 -19.62670898 2.67333984 C-23.80908437 3.26622602 -27.84084466 3.28618861 -32.05639648 3.23974609 C-32.84014648 3.23523438 -33.62389648 3.23072266 -34.43139648 3.22607422 C-36.34809663 3.21438702 -38.26475697 3.19645518 -40.18139648 3.17724609 C-40.51139648 2.51724609 -40.84139648 1.85724609 -41.18139648 1.17724609 C-27.45783609 0.5067603 -13.73969159 0.05922953 0 0 Z " fill="#2897C1" transform="translate(199.181396484375,7.82275390625)"/>
<path d="M0 0 C0.75410156 0.00451172 1.50820312 0.00902344 2.28515625 0.01367188 C4.14847127 0.02546501 6.01174555 0.04340058 7.875 0.0625 C7.30082888 3.56111602 6.13980957 5.11033182 3.5625 7.5 C0.73998332 10.19474844 -1.76269662 12.94425954 -4.125 16.0625 C-7.0969385 14.93798273 -9.45940687 13.83956209 -12.125 12.0625 C-11.135 12.0625 -10.145 12.0625 -9.125 12.0625 C-8.795 10.7425 -8.465 9.4225 -8.125 8.0625 C-9.115 8.0625 -10.105 8.0625 -11.125 8.0625 C-11.785 7.7325 -12.445 7.4025 -13.125 7.0625 C-13.125 8.7125 -13.125 10.3625 -13.125 12.0625 C-13.785 12.0625 -14.445 12.0625 -15.125 12.0625 C-15.125 12.7225 -15.125 13.3825 -15.125 14.0625 C-15.66125 14.289375 -16.1975 14.51625 -16.75 14.75 C-21.50016003 17.37508844 -25.37999204 21.17345327 -29.125 25.0625 C-29.125 20.82340461 -26.66506343 19.07695501 -23.875 16.1875 C-22.8891188 15.1498665 -21.9047223 14.11082017 -20.921875 13.0703125 C-20.44556641 12.56918945 -19.96925781 12.06806641 -19.47851562 11.55175781 C-18.21053248 10.15661041 -17.04554692 8.66977907 -15.890625 7.1796875 C-15.30796875 6.48101562 -14.7253125 5.78234375 -14.125 5.0625 C-13.465 5.0625 -12.805 5.0625 -12.125 5.0625 C-11.83625 4.423125 -11.5475 3.78375 -11.25 3.125 C-8.86443017 -1.24854468 -4.39912911 -0.04938573 0 0 Z " fill="#384757" transform="translate(122.125,50.9375)"/>
<path d="M0 0 C1.85980751 -0.00021904 1.85980751 -0.00021904 3.75718689 -0.0004425 C7.13472897 0.00013217 10.5122089 0.00512552 13.88973999 0.01213145 C17.42779352 0.01840967 20.96584801 0.01897231 24.50390625 0.02015686 C31.19372395 0.02325705 37.88352518 0.03145266 44.57333565 0.04150635 C52.19368828 0.05270835 59.81404173 0.05818821 67.43440056 0.06320179 C83.1008078 0.07363645 98.76719865 0.09121035 114.43359375 0.11352539 C114.43359375 0.44352539 114.43359375 0.77352539 114.43359375 1.11352539 C75.82359375 1.44352539 37.21359375 1.77352539 -2.56640625 2.11352539 C-2.89640625 3.76352539 -3.22640625 5.41352539 -3.56640625 7.11352539 C-2.57640625 7.44352539 -1.58640625 7.77352539 -0.56640625 8.11352539 C-12.08804634 8.29803564 -12.08804634 8.29803564 -17.56640625 7.11352539 C-17.56640625 5.46352539 -17.56640625 3.81352539 -17.56640625 2.11352539 C-18.22640625 2.11352539 -18.88640625 2.11352539 -19.56640625 2.11352539 C-19.89640625 3.10352539 -20.22640625 4.09352539 -20.56640625 5.11352539 C-20.56640625 3.79352539 -20.56640625 2.47352539 -20.56640625 1.11352539 C-13.68627196 0.05857277 -6.95260622 -0.0215714 0 0 Z " fill="#2C3B47" transform="translate(98.56640625,228.886474609375)"/>
<path d="M0 0 C0.33 0 0.66 0 1 0 C1.01981934 0.74161377 1.03963867 1.48322754 1.06005859 2.24731445 C1.15522928 5.60273834 1.26494094 8.95753286 1.375 12.3125 C1.4059375 13.47974609 1.436875 14.64699219 1.46875 15.84960938 C1.50742188 16.96787109 1.54609375 18.08613281 1.5859375 19.23828125 C1.6173584 20.26993408 1.6487793 21.30158691 1.68115234 22.36450195 C1.82674629 25.22843236 1.82674629 25.22843236 4 28 C5.27332239 26.95608728 5.27332239 26.95608728 5.0625 24.62890625 C5.041875 23.61699219 5.02125 22.60507813 5 21.5625 C4.94643684 15.97184522 5.31306502 10.54454666 6 5 C6.33 5 6.66 5 7 5 C7 11.93 7 18.86 7 26 C7.66 26 8.32 26 9 26 C10.25664978 28.90600261 11 30.79604584 11 34 C11.66 34 12.32 34 13 34 C14 37 14 37 12.6875 39.6875 C12.130625 40.450625 11.57375 41.21375 11 42 C10.34 42 9.68 42 9 42 C8.67 42.66 8.34 43.32 8 44 C2.133413 37.08580818 -1.12304559 31.13262232 -1.1328125 21.9921875 C-1.13410156 20.84105469 -1.13539062 19.68992188 -1.13671875 18.50390625 C-1.13285156 17.30636719 -1.12898437 16.10882813 -1.125 14.875 C-1.12886719 13.66972656 -1.13273438 12.46445313 -1.13671875 11.22265625 C-1.13542969 10.07410156 -1.13414063 8.92554688 -1.1328125 7.7421875 C-1.13168457 6.6888623 -1.13055664 5.63553711 -1.12939453 4.55029297 C-1 2 -1 2 0 0 Z " fill="#1C6892" transform="translate(5,187)"/>
<path d="M0 0 C0.62638406 9.93514711 0.62638406 9.93514711 -1.875 14.1875 C-4 16 -4 16 -6 16 C-6.33 15.34 -6.66 14.68 -7 14 C-7.66 15.65 -8.32 17.3 -9 19 C-9.33 18.34 -9.66 17.68 -10 17 C-10.66 17 -11.32 17 -12 17 C-12 18.32 -12 19.64 -12 21 C-15.96 21.495 -15.96 21.495 -20 22 C-21.25541557 18.23375329 -20.37061958 16.62811066 -19 13 C-18.34 13 -17.68 13 -17 13 C-17 11.68 -17 10.36 -17 9 C-16.195625 8.71125 -15.39125 8.4225 -14.5625 8.125 C-11.8673532 7.26737432 -11.8673532 7.26737432 -11 5 C-10.34 5 -9.68 5 -9 5 C-9 4.34 -9 3.68 -9 3 C-8.01 3.33 -7.02 3.66 -6 4 C-5.071875 3.01 -5.071875 3.01 -4.125 2 C-2 0 -2 0 0 0 Z " fill="#0773B6" transform="translate(136,76)"/>
<path d="M0 0 C2.66666667 5.33333333 5.33333333 10.66666667 8 16 C8.66 16 9.32 16 10 16 C10 16.66 10 17.32 10 18 C10.66 18 11.32 18 12 18 C17 23.47619048 17 23.47619048 17 26 C17.66 26 18.32 26 19 26 C23 30.47058824 23 30.47058824 23 33 C23.66 33 24.32 33 25 33 C25 33.66 25 34.32 25 35 C25.66 35 26.32 35 27 35 C27 35.66 27 36.32 27 37 C27.66 37 28.32 37 29 37 C29 37.66 29 38.32 29 39 C29.56460938 39.27714844 30.12921875 39.55429688 30.7109375 39.83984375 C33.05016952 41.02542722 35.33713228 42.28083497 37.625 43.5625 C42.07637076 46.05438031 44.7150265 47.14080187 49.8828125 47.31640625 C51.63271484 47.37924805 51.63271484 47.37924805 53.41796875 47.44335938 C55.25294922 47.50233398 55.25294922 47.50233398 57.125 47.5625 C58.35605469 47.60568359 59.58710938 47.64886719 60.85546875 47.69335938 C63.90352853 47.79968704 66.9516719 47.90171781 70 48 C67.21527096 50.78472904 65.49570937 50.25817412 61.6015625 50.265625 C60.31765625 50.26820313 59.03375 50.27078125 57.7109375 50.2734375 C57.04030273 50.26924805 56.36966797 50.26505859 55.67871094 50.26074219 C53.63966855 50.25007673 51.60151429 50.26061971 49.5625 50.2734375 C48.27601563 50.27085937 46.98953125 50.26828125 45.6640625 50.265625 C44.48279785 50.26336914 43.3015332 50.26111328 42.08447266 50.25878906 C39.11172364 50.00937368 37.41617185 49.71877191 35 48 C34.67 47.01 34.34 46.02 34 45 C32.02109999 43.29405171 30.18977078 42.08675235 27.8125 41 C26 40 26 40 25 37 C24.401875 36.7525 23.80375 36.505 23.1875 36.25 C20.40046073 34.65740613 19.53799383 32.59681092 18.08203125 29.8125 C16.48079551 27.13028561 14.22755975 25.16568309 12 23 C12 22.34 12 21.68 12 21 C11.1028125 20.9071875 11.1028125 20.9071875 10.1875 20.8125 C7.04154703 19.64400318 6.56912971 17.94996386 5 15 C4.57203125 14.38511719 4.1440625 13.77023438 3.703125 13.13671875 C0.4883204 8.4860885 -0.58873327 5.65183935 0 0 Z " fill="#3280A4" transform="translate(116,129)"/>
<path d="M0 0 C1.12588014 0.95729916 2.2506715 1.91587895 3.375 2.875 C4.00148437 3.40867188 4.62796875 3.94234375 5.2734375 4.4921875 C6.55836651 5.61432007 7.79371975 6.79371975 9 8 C8.70690635 11.58306982 7.15518858 13.15635584 4.5 15.4375 C0.41845871 18.83633744 -3.9652921 22.18296256 -9 24 C-11.265625 23.625 -11.265625 23.625 -13 23 C-13 22.34 -13 21.68 -13 21 C-9.696686 20.11064623 -6.37705625 19.53725895 -3 19 C-3 18.01 -3 17.02 -3 16 C-1.68 16 -0.36 16 1 16 C0.73323796 14.01508358 0.73323796 14.01508358 0 12 C-0.99 11.67 -1.98 11.34 -3 11 C-2.34 11 -1.68 11 -1 11 C-0.67 8.69 -0.34 6.38 0 4 C-0.66 4 -1.32 4 -2 4 C-2.12375 4.639375 -2.2475 5.27875 -2.375 5.9375 C-2.58125 6.618125 -2.7875 7.29875 -3 8 C-3.99 8.495 -3.99 8.495 -5 9 C-5.99 8.34 -6.98 7.68 -8 7 C-6.625 5.5 -6.625 5.5 -5 4 C-4.34 4 -3.68 4 -3 4 C-3 3.34 -3 2.68 -3 2 C-2.01 1.34 -1.02 0.68 0 0 Z " fill="#1C78AF" transform="translate(203,164)"/>
<path d="M0 0 C0.91974609 -0.00386719 1.83949219 -0.00773437 2.78710938 -0.01171875 C3.74552734 -0.00011719 4.70394531 0.01148438 5.69140625 0.0234375 C7.12323242 0.00603516 7.12323242 0.00603516 8.58398438 -0.01171875 C9.50501953 -0.00785156 10.42605469 -0.00398438 11.375 0 C12.63461548 0.00507568 12.63461548 0.00507568 13.91967773 0.01025391 C16.73749431 0.47885848 18.00670707 1.69421038 20.25390625 3.3984375 C21.57390625 3.3984375 22.89390625 3.3984375 24.25390625 3.3984375 C24.58390625 2.7384375 24.91390625 2.0784375 25.25390625 1.3984375 C25.91390625 1.3984375 26.57390625 1.3984375 27.25390625 1.3984375 C26.92390625 3.0484375 26.59390625 4.6984375 26.25390625 6.3984375 C26.91390625 6.7284375 27.57390625 7.0584375 28.25390625 7.3984375 C28.25390625 8.0584375 28.25390625 8.7184375 28.25390625 9.3984375 C31.22390625 8.7384375 34.19390625 8.0784375 37.25390625 7.3984375 C37.25390625 8.0584375 37.25390625 8.7184375 37.25390625 9.3984375 C37.91390625 9.3984375 38.57390625 9.3984375 39.25390625 9.3984375 C39.58390625 8.7384375 39.91390625 8.0784375 40.25390625 7.3984375 C40.74890625 9.3784375 40.74890625 9.3784375 41.25390625 11.3984375 C40.59390625 11.3984375 39.93390625 11.3984375 39.25390625 11.3984375 C39.25390625 12.0584375 39.25390625 12.7184375 39.25390625 13.3984375 C38.59390625 13.3984375 37.93390625 13.3984375 37.25390625 13.3984375 C37.25390625 14.0584375 37.25390625 14.7184375 37.25390625 15.3984375 C36.26390625 15.7284375 35.27390625 16.0584375 34.25390625 16.3984375 C31.50736234 14.33281712 29.05669238 12.02420797 26.53125 9.6953125 C19.60855228 4.23960995 10.58841903 3.91886092 2.12890625 3.7109375 C1.17242187 3.67677734 0.2159375 3.64261719 -0.76953125 3.60742188 C-3.09493448 3.52603276 -5.42001251 3.45654138 -7.74609375 3.3984375 C-5.32375134 0.42911455 -3.78561009 0.01527482 0 0 Z " fill="#2E91AF" transform="translate(168.74609375,61.6015625)"/>
<path d="M0 0 C1.32 0.66 2.64 1.32 4 2 C3.77441406 2.58652344 3.54882812 3.17304688 3.31640625 3.77734375 C2.74065226 6.0495425 2.74065226 6.0495425 4.21484375 7.81640625 C5.06755859 8.68072266 5.06755859 8.68072266 5.9375 9.5625 C9 12.69476082 9 12.69476082 9 16 C11.31 16.33 13.62 16.66 16 17 C16 17.33 16 17.66 16 18 C13.39472895 18.10792837 10.79391689 18.18724878 8.1875 18.25 C7.44951172 18.28351563 6.71152344 18.31703125 5.95117188 18.3515625 C0.47945865 18.45059803 0.47945865 18.45059803 -2.01171875 16.109375 C-3 14 -3 14 -3 12 C-3.66 12 -4.32 12 -5 12 C-5.33 9.03 -5.66 6.06 -6 3 C-4.68 2.67 -3.36 2.34 -2 2 C-1.34 1.34 -0.68 0.68 0 0 Z " fill="#26333F" transform="translate(113,173)"/>
<path d="M0 0 C2.02434654 0.51952256 4.02413655 1.13238987 6.01953125 1.75390625 C6.01953125 2.41390625 6.01953125 3.07390625 6.01953125 3.75390625 C6.67953125 3.75390625 7.33953125 3.75390625 8.01953125 3.75390625 C8.34953125 2.43390625 8.67953125 1.11390625 9.01953125 -0.24609375 C10.19172668 0.5373634 11.35716793 1.33093461 12.51953125 2.12890625 C13.16921875 2.56976563 13.81890625 3.010625 14.48828125 3.46484375 C14.99359375 3.89023438 15.49890625 4.315625 16.01953125 4.75390625 C16.01953125 5.41390625 16.01953125 6.07390625 16.01953125 6.75390625 C16.67953125 6.75390625 17.33953125 6.75390625 18.01953125 6.75390625 C17.68953125 8.07390625 17.35953125 9.39390625 17.01953125 10.75390625 C15.36953125 10.75390625 13.71953125 10.75390625 12.01953125 10.75390625 C12.01953125 10.09390625 12.01953125 9.43390625 12.01953125 8.75390625 C9.04953125 9.41390625 6.07953125 10.07390625 3.01953125 10.75390625 C3.01953125 10.09390625 3.01953125 9.43390625 3.01953125 8.75390625 C2.02953125 8.42390625 1.03953125 8.09390625 0.01953125 7.75390625 C0.67953125 6.10390625 1.33953125 4.45390625 2.01953125 2.75390625 C1.35953125 2.75390625 0.69953125 2.75390625 0.01953125 2.75390625 C-0.31046875 3.74390625 -0.64046875 4.73390625 -0.98046875 5.75390625 C-3.95046875 5.25890625 -3.95046875 5.25890625 -6.98046875 4.75390625 C-6.98046875 3.76390625 -6.98046875 2.77390625 -6.98046875 1.75390625 C-6.32046875 2.08390625 -5.66046875 2.41390625 -4.98046875 2.75390625 C-4.65046875 2.21765625 -4.32046875 1.68140625 -3.98046875 1.12890625 C-1.98046875 -0.24609375 -1.98046875 -0.24609375 0 0 Z " fill="#1C98C8" transform="translate(193.98046875,60.24609375)"/>
<path d="M0 0 C0.33 0 0.66 0 1 0 C1.76681614 12.59282511 1.76681614 12.59282511 -0.11328125 16.04296875 C-1.5 17.375 -1.5 17.375 -4 19 C-3.67 19.66 -3.34 20.32 -3 21 C-3.3086247 23.33672984 -3.64456573 25.66993089 -4 28 C-4.03545297 29.66628955 -4.05048188 31.33409803 -4 33 C-4.99 33.495 -4.99 33.495 -6 34 C-6.05855764 30.00006253 -6.09378299 26.00023692 -6.125 22 C-6.14175781 20.87464844 -6.15851563 19.74929687 -6.17578125 18.58984375 C-6.21227343 12.34968069 -5.85765989 6.96791525 -4 1 C-3.01 1.33 -2.02 1.66 -1 2 C-0.67 1.34 -0.34 0.68 0 0 Z " fill="#1B7AA8" transform="translate(234,44)"/>
<path d="M0 0 C0 0.33 0 0.66 0 1 C-1.175625 1.0928125 -1.175625 1.0928125 -2.375 1.1875 C-3.24125 1.455625 -4.1075 1.72375 -5 2 C-6.37466625 4.47636012 -6.37466625 4.47636012 -7 7 C-6.01 7.33 -5.02 7.66 -4 8 C-15.52164009 8.18451025 -15.52164009 8.18451025 -21 7 C-21 5.35 -21 3.7 -21 2 C-21.66 2 -22.32 2 -23 2 C-23.33 2.99 -23.66 3.98 -24 5 C-24 3.68 -24 2.36 -24 1 C-16.02509872 -0.32915021 -8.05813281 -0.08801359 0 0 Z " fill="#14435E" transform="translate(102,229)"/>
<path d="M0 0 C6.11090483 -0.09945415 11.97403427 -0.0712828 18 1 C18.495 3.475 18.495 3.475 19 6 C17.02 5.67 15.04 5.34 13 5 C13 6.32 13 7.64 13 9 C12.1754834 8.67854004 11.3509668 8.35708008 10.50146484 8.02587891 C6.60927042 6.88552185 2.99572223 6.651075 -1.0234375 6.5859375 C-1.76961334 6.56657135 -2.51578918 6.5472052 -3.28457642 6.5272522 C-5.64793777 6.46787935 -8.01134897 6.4212422 -10.375 6.375 C-11.98569732 6.33678116 -13.59637506 6.2977272 -15.20703125 6.2578125 C-19.13786016 6.16221324 -23.06878463 6.078028 -27 6 C-27 5.67 -27 5.34 -27 5 C-16.11 4.67 -5.22 4.34 6 4 C6.33 3.34 6.66 2.68 7 2 C4.69 2 2.38 2 0 2 C0 1.34 0 0.68 0 0 Z " fill="#3FB8DD" transform="translate(205,10)"/>
<path d="M0 0 C13.68678362 -0.63086153 25.18560543 -0.87626304 37 7 C37.1875 9.625 37.1875 9.625 37 12 C36.34 12 35.68 12 35 12 C35 11.34 35 10.68 35 10 C34.38125 9.87625 33.7625 9.7525 33.125 9.625 C30.29577578 8.79287523 29.06309516 7.06309516 27 5 C18.33621912 2.46061595 8.96262007 2.42732693 0 2 C0 1.34 0 0.68 0 0 Z " fill="#54B8D9" transform="translate(165,52)"/>
<path d="M0 0 C4.44907205 1.48302402 6.74579392 5.08285501 9 9 C9 9.66 9 10.32 9 11 C9.66 11 10.32 11 11 11 C11 11.66 11 12.32 11 13 C11.66 13 12.32 13 13 13 C13.33 14.32 13.66 15.64 14 17 C9.05 17 4.1 17 -1 17 C-1 16.67 -1 16.34 -1 16 C1.64 16 4.28 16 7 16 C6.81171228 13.55519921 6.81171228 13.55519921 6 11 C4.06669397 9.90833725 4.06669397 9.90833725 2 9 C-0.09195218 5.86207173 0 3.81919887 0 0 Z " fill="#37434F" transform="translate(115,173)"/>
<path d="M0 0 C3.96 0 7.92 0 12 0 C12.02505615 1.73604492 12.0501123 3.47208984 12.07592773 5.26074219 C12.15986664 11.00040179 12.24813107 16.73998614 12.33933926 22.47953415 C12.39447368 25.95898084 12.44787825 29.43843607 12.49731445 32.91796875 C12.55424124 36.91936197 12.61871887 40.92060269 12.68359375 44.921875 C12.70030624 46.16990906 12.71701874 47.41794312 12.73423767 48.70379639 C12.75418289 49.86469788 12.77412811 51.02559937 12.79467773 52.22167969 C12.81022202 53.24316101 12.8257663 54.26464233 12.84178162 55.31707764 C12.98195428 57.69399728 13.32393052 59.72566899 14 62 C13.34 62 12.68 62 12 62 C10.55792059 59.11584117 10.90605113 56.58278472 10.9375 53.375 C10.94652344 52.18648437 10.95554687 50.99796875 10.96484375 49.7734375 C10.97644531 48.85820313 10.98804688 47.94296875 11 47 C10.34 46.67 9.68 46.34 9 46 C9.66 46 10.32 46 11 46 C10.505 44.515 10.505 44.515 10 43 C9.90531132 41.11122875 9.86927881 39.2192671 9.8671875 37.328125 C9.86428711 35.62813354 9.86428711 35.62813354 9.86132812 33.89379883 C9.8680957 32.09011841 9.8680957 32.09011841 9.875 30.25 C9.87693359 29.03401123 9.87886719 27.81802246 9.88085938 26.56518555 C9.92193977 18.00505808 10.20046589 9.52360471 11 1 C5.37993278 1.11214648 5.37993278 1.11214648 1 4.0625 C0.67 4.701875 0.34 5.34125 0 6 C0 4.02 0 2.04 0 0 Z " fill="#63717C" transform="translate(43,53)"/>
<path d="M0 0 C2.66666667 5.33333333 5.33333333 10.66666667 8 16 C8.66 16 9.32 16 10 16 C10 16.66 10 17.32 10 18 C10.66 18 11.32 18 12 18 C17 23.47619048 17 23.47619048 17 26 C17.66 26 18.32 26 19 26 C23 30.47058824 23 30.47058824 23 33 C23.66 33 24.32 33 25 33 C25.33 34.32 25.66 35.64 26 37 C22.10132978 36.02533245 21.12473451 35.20659154 19 31.6875 C18.68546875 31.06875 18.3709375 30.45 18.046875 29.8125 C16.48504244 27.10843169 14.22528 25.16346667 12 23 C12 22.34 12 21.68 12 21 C11.1028125 20.9071875 11.1028125 20.9071875 10.1875 20.8125 C7.04154703 19.64400318 6.56912971 17.94996386 5 15 C4.57203125 14.38511719 4.1440625 13.77023438 3.703125 13.13671875 C0.4883204 8.4860885 -0.58873327 5.65183935 0 0 Z " fill="#3983A7" transform="translate(116,129)"/>
<path d="M0 0 C1.2065625 0.0309375 1.2065625 0.0309375 2.4375 0.0625 C1.6875 2 1.6875 2 0.4375 4.0625 C-1.6875 4.8125 -1.6875 4.8125 -3.5625 5.0625 C-3.5625 0.08689024 -3.5625 0.08689024 0 0 Z M-7.5625 3.0625 C-6.5725 3.7225 -5.5825 4.3825 -4.5625 5.0625 C-6.0475 7.5375 -6.0475 7.5375 -7.5625 10.0625 C-6.9025 10.0625 -6.2425 10.0625 -5.5625 10.0625 C-5.8925 10.7225 -6.2225 11.3825 -6.5625 12.0625 C-7.9546875 12.18625 -7.9546875 12.18625 -9.375 12.3125 C-12.85679381 12.77917187 -12.85679381 12.77917187 -14.9375 16.125 C-15.47375 17.094375 -16.01 18.06375 -16.5625 19.0625 C-17.5525 18.0725 -18.5425 17.0825 -19.5625 16.0625 C-15.75774578 11.50219176 -11.81280379 7.21160608 -7.5625 3.0625 Z " fill="#3E4957" transform="translate(83.5625,88.9375)"/>
<path d="M0 0 C5.28 0 10.56 0 16 0 C14.86634892 4.53460431 13.35806626 5.90024653 10 9 C8.02 8.34 6.04 7.68 4 7 C4 5.68 4 4.36 4 3 C2.35 2.67 0.7 2.34 -1 2 C-0.67 1.34 -0.34 0.68 0 0 Z " fill="#677582" transform="translate(114,51)"/>
<path d="M0 0 C5 2 5 2 7.27075195 3.04663086 C10.45823954 4.16007026 13.10703664 4.30378005 16.48046875 4.37890625 C17.72763672 4.41306641 18.97480469 4.44722656 20.25976562 4.48242188 C21.55591797 4.50884766 22.85207031 4.53527344 24.1875 4.5625 C32.50231634 4.75977227 40.73839626 4.99195607 49 6 C49 6.33 49 6.66 49 7 C43.91379356 7.0997145 38.82817008 7.17186281 33.74121094 7.21972656 C32.01487298 7.23970285 30.28860147 7.26689372 28.5625 7.30175781 C10.27239066 7.66163265 10.27239066 7.66163265 2 3 C1.34 2.67 0.68 2.34 0 2 C0 1.34 0 0.68 0 0 Z " fill="#2081A9" transform="translate(18,224)"/>
<path d="M0 0 C1.98046759 0.00503481 3.96093645 0.00959415 5.94140625 0.01367188 C10.71096985 0.02449813 15.48047013 0.04164854 20.25 0.0625 C20.25 0.3925 20.25 0.7225 20.25 1.0625 C11.67 1.0625 3.09 1.0625 -5.75 1.0625 C-6.08 1.7225 -6.41 2.3825 -6.75 3.0625 C-18.63 2.7325 -30.51 2.4025 -42.75 2.0625 C-42.75 1.7325 -42.75 1.4025 -42.75 1.0625 C-28.48566316 0.19849653 -14.28821483 -0.06442704 0 0 Z " fill="#2F6A87" transform="translate(163.75,7.9375)"/>
<path d="M0 0 C1.98 0.99 1.98 0.99 4 2 C4.75 4.625 4.75 4.625 5 7 C5.66 7 6.32 7 7 7 C7.33 6.34 7.66 5.68 8 5 C8.36923077 12.50769231 8.36923077 12.50769231 6.5 15 C6.005 15.33 5.51 15.66 5 16 C5 15.34 5 14.68 5 14 C4.34 14 3.68 14 3 14 C2.67 16.64 2.34 19.28 2 22 C1.67 22 1.34 22 1 22 C0.67 14.74 0.34 7.48 0 0 Z " fill="#2093BF" transform="translate(227,31)"/>
<path d="M0 0 C0 0.66 0 1.32 0 2 C1.32 2.33 2.64 2.66 4 3 C2.125 6.875 2.125 6.875 1 8 C0.01 8 -0.98 8 -2 8 C-2.33 9.65 -2.66 11.3 -3 13 C-3.99 13 -4.98 13 -6 13 C-7.38671875 11.46875 -7.38671875 11.46875 -8.6875 9.5 C-9.34298828 8.52546875 -9.34298828 8.52546875 -10.01171875 7.53125 C-10.33785156 7.0259375 -10.66398438 6.520625 -11 6 C-9.35 6 -7.7 6 -6 6 C-6 6.99 -6 7.98 -6 9 C-5.01 9 -4.02 9 -3 9 C-3 8.01 -3 7.02 -3 6 C-4.98 5.01 -6.96 4.02 -9 3 C-9 2.34 -9 1.68 -9 1 C-8.401875 1.20625 -7.80375 1.4125 -7.1875 1.625 C-4.0126065 2.16926746 -3.11147803 0 0 0 Z " fill="#1284C0" transform="translate(151,61)"/>
<path d="M0 0 C0 0.66 0 1.32 0 2 C1.98 1.34 3.96 0.68 6 0 C5.01 1.485 5.01 1.485 4 3 C4.66 3.66 5.32 4.32 6 5 C5.12988281 5.25523438 5.12988281 5.25523438 4.2421875 5.515625 C-0.82061512 7.08626344 -4.72699555 8.87341138 -9 12 C-9.99 12.495 -9.99 12.495 -11 13 C-10.23179906 8.13472736 -8.38727549 6.38727549 -5 3 C-5.33 2.34 -5.66 1.68 -6 1 C-3 0 -3 0 0 0 Z " fill="#1B89BA" transform="translate(159,61)"/>
<path d="M0 0 C3.73487777 0.4979837 5.81237635 0.87491756 9 3 C10.1875 6.125 10.1875 6.125 11 9 C9.68 9 8.36 9 7 9 C7 9.66 7 10.32 7 11 C7.66 11 8.32 11 9 11 C9 12.65 9 14.3 9 16 C8.67 14.68 8.34 13.36 8 12 C7.34 12 6.68 12 6 12 C4.9935725 10.33720673 3.99414593 8.67016516 3 7 C2.01 6.34 1.02 5.68 0 5 C-0.1875 2.375 -0.1875 2.375 0 0 Z " fill="#26B8E6" transform="translate(218,15)"/>
<path d="M0 0 C0 0.66 0 1.32 0 2 C0.66 2 1.32 2 2 2 C2.33 1.34 2.66 0.68 3 0 C3.33 1.32 3.66 2.64 4 4 C3.34 4 2.68 4 2 4 C2 4.66 2 5.32 2 6 C1.34 6 0.68 6 0 6 C0 6.66 0 7.32 0 8 C-0.99 8.33 -1.98 8.66 -3 9 C-4.82421875 7.78515625 -4.82421875 7.78515625 -6.6875 6.0625 C-7.31011719 5.49660156 -7.93273437 4.93070312 -8.57421875 4.34765625 C-9.04472656 3.90292969 -9.51523438 3.45820312 -10 3 C-6.59538535 1.23899242 -3.90650339 0 0 0 Z " fill="#2A88B0" transform="translate(206,69)"/>
<path d="M0 0 C1.32 0.66 2.64 1.32 4 2 C4 2.66 4 3.32 4 4 C4.99 4.33 5.98 4.66 7 5 C6.01 6.485 6.01 6.485 5 8 C5.66 8.33 6.32 8.66 7 9 C7.33 9.66 7.66 10.32 8 11 C3.02833396 10.526508 -0.10996636 9.14907485 -4 6 C-4 5.01 -4 4.02 -4 3 C-2 1.3125 -2 1.3125 0 0 Z " fill="#037BB4" transform="translate(18,226)"/>
<path d="M0 0 C0.33 0 0.66 0 1 0 C1.03758423 1.12027588 1.03758423 1.12027588 1.07592773 2.26318359 C1.19168213 5.63397267 1.31450128 9.00446783 1.4375 12.375 C1.47681641 13.550625 1.51613281 14.72625 1.55664062 15.9375 C1.59853516 17.05898437 1.64042969 18.18046875 1.68359375 19.3359375 C1.72025146 20.37282715 1.75690918 21.4097168 1.79467773 22.47802734 C1.84164223 24.99425166 1.84164223 24.99425166 3 27 C2.0625 29.625 2.0625 29.625 1 32 C-1.06885117 28.5900085 -1.24586184 25.94670195 -1.23046875 21.9921875 C-1.22853516 20.84105469 -1.22660156 19.68992188 -1.22460938 18.50390625 C-1.21236328 17.30636719 -1.20011719 16.10882813 -1.1875 14.875 C-1.18685547 13.66972656 -1.18621094 12.46445313 -1.18554688 11.22265625 C-1.14038584 2.28077168 -1.14038584 2.28077168 0 0 Z " fill="#174C73" transform="translate(5,187)"/>
<path d="M0 0 C1.32 0 2.64 0 4 0 C3.14657387 5.41688528 -0.82325773 7.85342739 -5 11 C-12.78306056 16.20142446 -12.78306056 16.20142446 -16.265625 15.625 C-16.83796875 15.41875 -17.4103125 15.2125 -18 15 C-18 14.34 -18 13.68 -18 13 C-14.696686 12.11064623 -11.37705625 11.53725895 -8 11 C-8 10.01 -8 9.02 -8 8 C-7.21625 7.71125 -6.4325 7.4225 -5.625 7.125 C-2.90328368 6.15087746 -2.90328368 6.15087746 -1 4 C-0.3574765 1.93125966 -0.3574765 1.93125966 0 0 Z " fill="#206899" transform="translate(208,172)"/>
<path d="M0 0 C0.625 1.875 0.625 1.875 1 4 C0.34 4.66 -0.32 5.32 -1 6 C-1.433125 7.5159375 -1.433125 7.5159375 -1.875 9.0625 C-2.431875 10.5165625 -2.431875 10.5165625 -3 12 C-3.62648438 12.13148437 -4.25296875 12.26296875 -4.8984375 12.3984375 C-7.19512119 12.82079763 -7.19512119 12.82079763 -8.484375 15.06640625 C-9.11085938 16.30197266 -9.11085938 16.30197266 -9.75 17.5625 C-10.17796875 18.38878906 -10.6059375 19.21507813 -11.046875 20.06640625 C-11.36140625 20.70449219 -11.6759375 21.34257813 -12 22 C-12.671875 20.3125 -12.671875 20.3125 -13 18 C-11.890625 15.5625 -11.890625 15.5625 -10.25 13 C-9.45335938 11.7315625 -9.45335938 11.7315625 -8.640625 10.4375 C-5.52941176 5.81512605 -5.52941176 5.81512605 -4 4 C-3.34 4 -2.68 4 -2 4 C-2 3.34 -2 2.68 -2 2 C-1.34 2 -0.68 2 0 2 C0 1.34 0 0.68 0 0 Z " fill="#16699A" transform="translate(118,85)"/>
<path d="M0 0 C0.99 0.33 1.98 0.66 3 1 C3 1.66 3 2.32 3 3 C3.66 3 4.32 3 5 3 C6.26004539 4.67703883 7.43129522 6.42099233 8.5625 8.1875 C9.61630859 9.80978516 9.61630859 9.80978516 10.69140625 11.46484375 C11.06410645 12.03960449 11.43680664 12.61436523 11.82080078 13.20654297 C13.82708118 16.25791684 15.9136097 19.25307882 18 22.25 C18.39775635 22.82258545 18.7955127 23.3951709 19.20532227 23.98510742 C20.1359264 25.32406927 21.0678133 26.66213945 22 28 C21.67 28.66 21.34 29.32 21 30 C13.33822116 20.46588935 6.35257547 10.45101125 0 0 Z " fill="#636E78" transform="translate(93,142)"/>
<path d="M0 0 C3.3 0.99 6.6 1.98 10 3 C9.01 3.495 9.01 3.495 8 4 C8 4.99 8 5.98 8 7 C7.01 7 6.02 7 5 7 C5 6.01 5 5.02 5 4 C1.20696275 5.00193437 -1.71536341 5.81024227 -5 8 C-5.33 8.99 -5.66 9.98 -6 11 C-7.32 10.67 -8.64 10.34 -10 10 C-6.7 6.7 -3.4 3.4 0 0 Z " fill="#167BB0" transform="translate(140,63)"/>
<path d="M0 0 C0 1.65 0 3.3 0 5 C-0.66 5 -1.32 5 -2 5 C-2 5.66 -2 6.32 -2 7 C-2.53625 7.226875 -3.0725 7.45375 -3.625 7.6875 C-8.37516003 10.31258844 -12.25499204 14.11095327 -16 18 C-16 13.73187416 -13.48608073 11.92209942 -10.6875 9 C-10.18798828 8.46632813 -9.68847656 7.93265625 -9.17382812 7.3828125 C-7.79281451 5.91217019 -6.39691782 4.45554389 -5 3 C-4.42894531 2.38125 -3.85789062 1.7625 -3.26953125 1.125 C-2 0 -2 0 0 0 Z " fill="#465461" transform="translate(109,58)"/>
<path d="M0 0 C0.99 0.495 0.99 0.495 2 1 C2 1.66 2 2.32 2 3 C2.66 3 3.32 3 4 3 C5.5078125 4.8984375 5.5078125 4.8984375 7.125 7.375 C7.66382812 8.18710938 8.20265625 8.99921875 8.7578125 9.8359375 C10 12 10 12 10 14 C10.66 14 11.32 14 12 14 C15.22265625 19.2734375 15.22265625 19.2734375 16 21 C15.67 21.66 15.34 22.32 15 23 C13.05847229 20.44052949 11.12251487 17.87689687 9.1875 15.3125 C8.36668945 14.2306543 8.36668945 14.2306543 7.52929688 13.12695312 C0 3.13352273 0 3.13352273 0 0 Z " fill="#656F78" transform="translate(77,118)"/>
<path d="M0 0 C3.77545388 1.09068668 6.47043472 1.9083091 9 5 C6.09399739 6.25664978 4.20395416 7 1 7 C1 6.34 1 5.68 1 5 C0.01 4.67 -0.98 4.34 -2 4 C-1.34 2.68 -0.68 1.36 0 0 Z " fill="#1B8CBF" transform="translate(196,64)"/>
<path d="M0 0 C0.33 0.99 0.66 1.98 1 3 C-2.625 6 -2.625 6 -6 6 C-6.33 6.66 -6.66 7.32 -7 8 C-7.66 6.02 -8.32 4.04 -9 2 C-5.62902617 0.50178941 -3.79557881 0 0 0 Z " fill="#2A97C2" transform="translate(165,52)"/>
<path d="M0 0 C0.66 0.33 1.32 0.66 2 1 C1.48118887 5.1724106 0.28848726 7.25416821 -2.5625 10.3125 C-3.20316406 11.00988281 -3.84382813 11.70726563 -4.50390625 12.42578125 C-4.99761719 12.94527344 -5.49132812 13.46476562 -6 14 C-7.0625 12.125 -7.0625 12.125 -8 10 C-7.67 9.34 -7.34 8.68 -7 8 C-6.01 8 -5.02 8 -4 8 C-4 6.68 -4 5.36 -4 4 C-3.01 4 -2.02 4 -1 4 C-0.67 2.68 -0.34 1.36 0 0 Z " fill="#186A9C" transform="translate(128,89)"/>
<path d="M0 0 C0.66 0 1.32 0 2 0 C0.59155282 3.21524305 -1.10344786 5.32183868 -3.625 7.75 C-4.57246094 8.67039062 -4.57246094 8.67039062 -5.5390625 9.609375 C-6.02117187 10.06828125 -6.50328125 10.5271875 -7 11 C-9 8 -9 8 -9 6 C-7.66666667 4.66666667 -6.33333333 3.33333333 -5 2 C-4.01 2.66 -3.02 3.32 -2 4 C-2 3.34 -2 2.68 -2 2 C-1.34 2 -0.68 2 0 2 C0 1.34 0 0.68 0 0 Z " fill="#1874A3" transform="translate(144,75)"/>
<path d="M0 0 C2.625 0.9375 2.625 0.9375 5 2 C5 2.66 5 3.32 5 4 C6.65 4.33 8.3 4.66 10 5 C9.01 5.99 8.02 6.98 7 8 C3.59687262 6.94124926 0.98646769 5.99097846 -2 4 C-2 3.01 -2 2.02 -2 1 C-1.34 0.67 -0.68 0.34 0 0 Z " fill="#1B8EC0" transform="translate(154,54)"/>
<path d="M0 0 C2.97 0.495 2.97 0.495 6 1 C6.33 2.65 6.66 4.3 7 6 C7.66 6 8.32 6 9 6 C14 11 14 11 14 14 C12 14 12 14 10.44921875 12.4609375 C9.86785156 11.77257812 9.28648437 11.08421875 8.6875 10.375 C8.07132813 9.65054688 7.45515625 8.92609375 6.8203125 8.1796875 C5.91925781 7.10074219 5.91925781 7.10074219 5 6 C4.48179688 5.38382813 3.96359375 4.76765625 3.4296875 4.1328125 C2.28041165 2.76024877 1.1392439 1.3809017 0 0 Z " fill="#1B6392" transform="translate(120,160)"/>
<path d="M0 0 C4.44907205 1.48302402 6.74579392 5.08285501 9 9 C9 9.66 9 10.32 9 11 C9.66 11 10.32 11 11 11 C11 11.66 11 12.32 11 13 C11.66 13 12.32 13 13 13 C13.33 14.32 13.66 15.64 14 17 C13.01 17 12.02 17 11 17 C6.71428571 9.57142857 6.71428571 9.57142857 5 6 C4.34 6 3.68 6 3 6 C2.01 4.02 1.02 2.04 0 0 Z " fill="#6C777F" transform="translate(115,173)"/>
<path d="M0 0 C2.71224618 1.61268692 5.37352812 3.24901874 8 5 C8 5.66 8 6.32 8 7 C8.66 7 9.32 7 10 7 C10 7.99 10 8.98 10 10 C9.34 10 8.68 10 8 10 C8 9.34 8 8.68 8 8 C5.69 7.34 3.38 6.68 1 6 C0.67 4.02 0.34 2.04 0 0 Z " fill="#4896B6" transform="translate(202,60)"/>
<path d="M0 0 C0.99 0.33 1.98 0.66 3 1 C2.4739075 4.78786597 1.61896089 7.17152224 -1 10 C-1.66 10 -2.32 10 -3 10 C-3.75 7.75 -3.75 7.75 -4 5 C-2.0625 2.75 -2.0625 2.75 0 1 C0 0.67 0 0.34 0 0 Z " fill="#156EA9" transform="translate(133,82)"/>
<path d="M0 0 C0.66 0.33 1.32 0.66 2 1 C2 3 2 3 0.125 5.125 C-2 7 -2 7 -4 7 C-4.33 7.99 -4.66 8.98 -5 10 C-6.65 10.33 -8.3 10.66 -10 11 C-6.79239749 7.19364503 -3.59253891 3.45436433 0 0 Z " fill="#1C6C98" transform="translate(129,74)"/>
<path d="M0 0 C1.98 0.66 3.96 1.32 6 2 C5.67 3.98 5.34 5.96 5 8 C3.68 7.67 2.36 7.34 1 7 C0.67 4.69 0.34 2.38 0 0 Z " fill="#036DA0" transform="translate(9,218)"/>
<path d="M0 0 C0.66 0 1.32 0 2 0 C2.625 2.3125 2.625 2.3125 3 5 C2.01 6.485 2.01 6.485 1 8 C0.36707617 10.11280345 0.36707617 10.11280345 0 12 C-1 11 -1 11 -1.0625 8.4375 C-1.041875 7.633125 -1.02125 6.82875 -1 6 C-1.66 6 -2.32 6 -3 6 C-3.33 5.01 -3.66 4.02 -4 3 C-3.01 2.67 -2.02 2.34 -1 2 C-0.67 1.34 -0.34 0.68 0 0 Z " fill="#30B8E0" transform="translate(228,20)"/>
<path d="M0 0 C11.52164009 -0.18451025 11.52164009 -0.18451025 17 1 C17 1.66 17 2.32 17 3 C14.23735711 3.59732819 11.83967231 4 9 4 C9 3.01 9 2.02 9 1 C4.545 1.495 4.545 1.495 0 2 C0 1.34 0 0.68 0 0 Z " fill="#2CB9E1" transform="translate(205,10)"/>
<path d="M0 0 C1.65 0 3.3 0 5 0 C5 0.66 5 1.32 5 2 C10.94 3.485 10.94 3.485 17 5 C17 5.33 17 5.66 17 6 C10.24520726 6.7342166 5.81475715 4.27591952 0 1 C0 0.67 0 0.34 0 0 Z " fill="#2771A3" transform="translate(144,183)"/>
<path d="M0 0 C0.99 0.33 1.98 0.66 3 1 C3.6875 3.0625 3.6875 3.0625 4 5 C5.32 4.34 6.64 3.68 8 3 C7.67 5.64 7.34 8.28 7 11 C4.0444623 8.24829249 1.88436685 5.58029701 0 2 C0 1.34 0 0.68 0 0 Z " fill="#196394" transform="translate(106,141)"/>
<path d="M0 0 C0.99 0 1.98 0 3 0 C2.21681311 3.91593446 0.60820142 7.36406635 -1 11 C-1.99 10.34 -2.98 9.68 -4 9 C-3.625 7.0625 -3.625 7.0625 -3 5 C-2.34 4.67 -1.68 4.34 -1 4 C-1 3.01 -1 2.02 -1 1 C-0.67 0.67 -0.34 0.34 0 0 Z " fill="#1F2934" transform="translate(15,21)"/>
<path d="M0 0 C3.83473284 -0.35671933 5.55342875 -0.29771416 8.8125 1.875 C11 4 11 4 12 6 C7.01208429 5.52496041 3.9767259 4.0298864 0 1 C0 0.67 0 0.34 0 0 Z " fill="#187497" transform="translate(14,231)"/>
<path d="M0 0 C0.66 0.66 1.32 1.32 2 2 C1.01 2.66 0.02 3.32 -1 4 C-2.05104383 5.63495707 -3.05988318 7.29883624 -4 9 C-5.32 8.34 -6.64 7.68 -8 7 C-6.625 5.5 -6.625 5.5 -5 4 C-4.34 4 -3.68 4 -3 4 C-3 3.34 -3 2.68 -3 2 C-2.01 1.34 -1.02 0.68 0 0 Z " fill="#28688A" transform="translate(203,164)"/>
<path d="M0 0 C0.66 0.99 1.32 1.98 2 3 C0.02 5.97 0.02 5.97 -2 9 C-2.99 8.01 -3.98 7.02 -5 6 C-3.35 4.02 -1.7 2.04 0 0 Z M2 0 C2.99 0.495 2.99 0.495 4 1 C3.01 1.495 3.01 1.495 2 2 C2 1.34 2 0.68 2 0 Z " fill="#343D4B" transform="translate(69,99)"/>
<path d="M0 0 C1.2065625 0.0309375 1.2065625 0.0309375 2.4375 0.0625 C1.6875 2 1.6875 2 0.4375 4.0625 C-1.6875 4.8125 -1.6875 4.8125 -3.5625 5.0625 C-3.5625 0.08689024 -3.5625 0.08689024 0 0 Z M-7.5625 3.0625 C-6.0775 4.0525 -6.0775 4.0525 -4.5625 5.0625 C-5.5525 5.5575 -5.5525 5.5575 -6.5625 6.0625 C-7.2225 5.4025 -7.8825 4.7425 -8.5625 4.0625 C-8.2325 3.7325 -7.9025 3.4025 -7.5625 3.0625 Z " fill="#33414F" transform="translate(83.5625,88.9375)"/>
<path d="M0 0 C3 4 3 4 2.6875 7.4375 C2.460625 8.613125 2.23375 9.78875 2 11 C1.96454703 12.66628955 1.94951812 14.33409803 2 16 C1.34 16.33 0.68 16.66 0 17 C0 11.39 0 5.78 0 0 Z " fill="#295572" transform="translate(228,61)"/>
<path d="M0 0 C3.03336186 -0.22893297 5.97465051 -0.36475845 9 0 C11.0625 2 11.0625 2 12 4 C11.67 4.66 11.34 5.32 11 6 C8.525 5.01 8.525 5.01 6 4 C6 3.34 6 2.68 6 2 C4.02 2 2.04 2 0 2 C0 1.34 0 0.68 0 0 Z " fill="#1DA5D4" transform="translate(184,56)"/>
<path d="M0 0 C0.33 0 0.66 0 1 0 C1.06058594 0.98742187 1.12117187 1.97484375 1.18359375 2.9921875 C1.26738281 4.27351562 1.35117188 5.55484375 1.4375 6.875 C1.51871094 8.15117187 1.59992187 9.42734375 1.68359375 10.7421875 C1.79206027 13.88300152 1.79206027 13.88300152 3 16 C2.0625 18.625 2.0625 18.625 1 21 C0.67 21 0.34 21 0 21 C0 14.07 0 7.14 0 0 Z " fill="#135984" transform="translate(5,198)"/>
<path d="M0 0 C1.32 0 2.64 0 4 0 C3.82374165 2.37948772 3.30280227 3.70225849 1.59765625 5.37890625 C0.09350908 6.62115486 -1.45129851 7.81376056 -3 9 C-3 6 -3 6 -1 4 C-0.3574765 1.93125966 -0.3574765 1.93125966 0 0 Z " fill="#226286" transform="translate(208,172)"/>
<path d="M0 0 C0.66 0.66 1.32 1.32 2 2 C4.06874034 2.6425235 4.06874034 2.6425235 6 3 C4.70903219 3.81360995 3.41720125 4.62585046 2.125 5.4375 C1.40570313 5.88996094 0.68640625 6.34242187 -0.0546875 6.80859375 C-2 8 -2 8 -4 9 C-3.25 4.25 -3.25 4.25 -1 2 C-0.67 1.34 -0.34 0.68 0 0 Z " fill="#28779F" transform="translate(152,65)"/>
<path d="M0 0 C5 2 5 2 7.4375 3.0625 C10.27714594 4.10139486 13.01093625 4.58292134 16 5 C16 5.33 16 5.66 16 6 C9.49686791 6.46450943 5.5825192 5.32575612 0 2 C0 1.34 0 0.68 0 0 Z " fill="#4294AF" transform="translate(18,224)"/>
<path d="M0 0 C0.66 0 1.32 0 2 0 C2.5345256 1.24420647 3.05208611 2.49570936 3.5625 3.75 C3.85253906 4.44609375 4.14257812 5.1421875 4.44140625 5.859375 C5.07831803 8.30012784 4.80248831 9.6403655 4 12 C3.731875 11.21625 3.46375 10.4325 3.1875 9.625 C2.15185568 6.71885077 2.15185568 6.71885077 -1 5 C-0.67 3.35 -0.34 1.7 0 0 Z " fill="#317B9E" transform="translate(12,213)"/>
<path d="M0 0 C0.66 1.32 1.32 2.64 2 4 C0.35 5.98 -1.3 7.96 -3 10 C-3.99 9.01 -4.98 8.02 -6 7 C-3 5 -3 5 -1 5 C-0.67 3.35 -0.34 1.7 0 0 Z " fill="#323E4A" transform="translate(79,103)"/>
<path d="M0 0 C1.65 0 3.3 0 5 0 C7 4.75 7 4.75 7 7 C7.66 7 8.32 7 9 7 C9 8.65 9 10.3 9 12 C8.67 10.68 8.34 9.36 8 8 C7.34 8 6.68 8 6 8 C4.97388051 6.34928604 3.97691857 4.68029994 3 3 C1.41754725 1.24850835 1.41754725 1.24850835 0 0 Z " fill="#2884A1" transform="translate(218,19)"/>
<path d="M0 0 C2.91517292 1.07401108 4.77810176 1.77810176 7 4 C7 4.99 7 5.98 7 7 C6.01 7.33 5.02 7.66 4 8 C3.67 7.01 3.34 6.02 3 5 C2.34 4.67 1.68 4.34 1 4 C0.375 1.9375 0.375 1.9375 0 0 Z " fill="#45B4D3" transform="translate(223,13)"/>
<path d="M0 0 C0 1.65 0 3.3 0 5 C-1.875 6.0625 -1.875 6.0625 -4 7 C-4.66 6.67 -5.32 6.34 -6 6 C-5.75 4.125 -5.75 4.125 -5 2 C-1.8 0 -1.8 0 0 0 Z " fill="#0A6596" transform="translate(12,213)"/>
<path d="M0 0 C1.98 0.495 1.98 0.495 4 1 C3.6875 3.375 3.6875 3.375 3 6 C2.01 6.66 1.02 7.32 0 8 C-0.79953138 4.71303767 -1.09658936 3.28976808 0 0 Z " fill="#3E4A57" transform="translate(56,126)"/>
<path d="M0 0 C2.31 0.33 4.62 0.66 7 1 C7.33 1.99 7.66 2.98 8 4 C5.03 3.67 2.06 3.34 -1 3 C-0.67 2.01 -0.34 1.02 0 0 Z " fill="#3699B9" transform="translate(182,52)"/>
<path d="M0 0 C0.99 0 1.98 0 3 0 C3 0.66 3 1.32 3 2 C2.34 2 1.68 2 1 2 C0.7525 2.61875 0.505 3.2375 0.25 3.875 C-1.20628639 6.35068687 -2.37812506 6.95125002 -5 8 C-4.34 6.35 -3.68 4.7 -3 3 C-2.34 3 -1.68 3 -1 3 C-0.67 2.01 -0.34 1.02 0 0 Z " fill="#475862" transform="translate(89,77)"/>
<path d="M0 0 C0.66 1.32 1.32 2.64 2 4 C1.34 4 0.68 4 0 4 C0 4.66 0 5.32 0 6 C-0.66 6 -1.32 6 -2 6 C-2.33 6.66 -2.66 7.32 -3 8 C-3.33 6.02 -3.66 4.04 -4 2 C-2.68 2 -1.36 2 0 2 C0 1.34 0 0.68 0 0 Z " fill="#2874A1" transform="translate(208,69)"/>
<path d="M0 0 C1.32 0.99 2.64 1.98 4 3 C3.01 3.33 2.02 3.66 1 4 C0.67 4.99 0.34 5.98 0 7 C-0.66 6.67 -1.32 6.34 -2 6 C-2 4.68 -2 3.36 -2 2 C-1.34 2 -0.68 2 0 2 C0 1.34 0 0.68 0 0 Z " fill="#2D3A43" transform="translate(86,95)"/>
<path d="M0 0 C0.99 0.33 1.98 0.66 3 1 C4.89212737 1.22179785 6.78884472 1.40614015 8.6875 1.5625 C9.68136719 1.64628906 10.67523438 1.73007813 11.69921875 1.81640625 C12.83810547 1.90728516 12.83810547 1.90728516 14 2 C14 2.33 14 2.66 14 3 C11.70858714 3.05384521 9.41681812 3.09272087 7.125 3.125 C5.21074219 3.15980469 5.21074219 3.15980469 3.2578125 3.1953125 C0 3 0 3 -2 1 C-1.34 0.67 -0.68 0.34 0 0 Z " fill="#0282BB" transform="translate(27,233)"/>
<path d="M0 0 C1.32 0 2.64 0 4 0 C4.33 1.65 4.66 3.3 5 5 C3.35 5 1.7 5 0 5 C0 3.35 0 1.7 0 0 Z " fill="#084363" transform="translate(81,231)"/>
<path d="M0 0 C0.75 1.5625 0.75 1.5625 1 4 C-0.13084437 6.50286409 -1.52139516 8.67007722 -3 11 C-3.75 9.4375 -3.75 9.4375 -4 7 C-2.86915563 4.49713591 -1.47860484 2.32992278 0 0 Z " fill="#266994" transform="translate(109,96)"/>
<path d="M0 0 C-0.33 1.65 -0.66 3.3 -1 5 C-0.34 5.33 0.32 5.66 1 6 C1 6.66 1 7.32 1 8 C-0.32 7.67 -1.64 7.34 -3 7 C-3 6.01 -3 5.02 -3 4 C-3.66 3.67 -4.32 3.34 -5 3 C-2.25 0 -2.25 0 0 0 Z " fill="#3094BB" transform="translate(196,63)"/>
<path d="M0 0 C3.63 0 7.26 0 11 0 C11 0.33 11 0.66 11 1 C9.1128125 1.12375 9.1128125 1.12375 7.1875 1.25 C3.66188788 1.66557143 3.66188788 1.66557143 1 4.0625 C0.67 4.701875 0.34 5.34125 0 6 C0 4.02 0 2.04 0 0 Z " fill="#5D6D79" transform="translate(43,53)"/>
<path d="M0 0 C0.33 0.66 0.66 1.32 1 2 C0.2884375 2.6496875 0.2884375 2.6496875 -0.4375 3.3125 C-2.23686957 5.02309613 -2.23686957 5.02309613 -3 8 C-4.32 7.67 -5.64 7.34 -7 7 C-4.69 4.69 -2.38 2.38 0 0 Z " fill="#2978A1" transform="translate(137,66)"/>
<path d="M0 0 C1.65 0 3.3 0 5 0 C3.68 1.65 2.36 3.3 1 5 C0.01 4.67 -0.98 4.34 -2 4 C-1.34 2.68 -0.68 1.36 0 0 Z " fill="#425765" transform="translate(125,53)"/>
<path d="M0 0 C0.99 0.33 1.98 0.66 3 1 C2.01 1.33 1.02 1.66 0 2 C0.33 3.32 0.66 4.64 1 6 C-0.65 5.67 -2.3 5.34 -4 5 C-4 4.34 -4 3.68 -4 3 C-2.1875 1.3125 -2.1875 1.3125 0 0 Z " fill="#0D80B0" transform="translate(18,226)"/>
<path d="M0 0 C0.33 0.66 0.66 1.32 1 2 C1.66 2 2.32 2 3 2 C3 2.66 3 3.32 3 4 C3.99 4.33 4.98 4.66 6 5 C6 5.33 6 5.66 6 6 C4.02 6 2.04 6 0 6 C0 4.02 0 2.04 0 0 Z " fill="#2A6E9C" transform="translate(142,164)"/>
<path d="M0 0 C0.66 0 1.32 0 2 0 C2 0.66 2 1.32 2 2 C2.66 2 3.32 2 4 2 C4.33 3.32 4.66 4.64 5 6 C2.525 5.01 2.525 5.01 0 4 C0 2.68 0 1.36 0 0 Z " fill="#3A8CBA" transform="translate(137,160)"/>
<path d="M0 0 C3 1 3 1 4.1875 3.0625 C4.455625 3.701875 4.72375 4.34125 5 5 C3.68 5.33 2.36 5.66 1 6 C1 5.01 1 4.02 1 3 C0.34 3 -0.32 3 -1 3 C-0.67 2.01 -0.34 1.02 0 0 Z " fill="#3C4955" transform="translate(75,119)"/>
<path d="M0 0 C0.99 0.33 1.98 0.66 3 1 C2.625 3.4375 2.625 3.4375 2 6 C1.01 6.495 1.01 6.495 0 7 C-0.93423645 3.98968256 -1.04449911 3.13349732 0 0 Z " fill="#1878B1" transform="translate(133,82)"/>
<path d="M0 0 C0.66 0 1.32 0 2 0 C0.60667426 3.36720387 -0.9789286 4.9859524 -4 7 C-4.33 6.01 -4.66 5.02 -5 4 C-4.01 4 -3.02 4 -2 4 C-2 3.34 -2 2.68 -2 2 C-1.34 2 -0.68 2 0 2 C0 1.34 0 0.68 0 0 Z " fill="#216088" transform="translate(144,75)"/>
<path d="M0 0 C1.98 0 3.96 0 6 0 C5.67 1.65 5.34 3.3 5 5 C3.35 3.35 1.7 1.7 0 0 Z " fill="#267895" transform="translate(196,71)"/>
<path d="M0 0 C1.65 0.99 3.3 1.98 5 3 C4.01 3.495 4.01 3.495 3 4 C3 4.66 3 5.32 3 6 C2.34 6 1.68 6 1 6 C0.67 4.02 0.34 2.04 0 0 Z " fill="#3A9ABA" transform="translate(202,60)"/>
<path d="M0 0 C0.99 0.495 0.99 0.495 2 1 C2.40729228 3.32156597 2.74438677 5.6568787 3 8 C2.01 8 1.02 8 0 8 C0 5.36 0 2.72 0 0 Z " fill="#256D91" transform="translate(228,53)"/>
</svg>
